<?xml version="1.0" encoding="UTF-8" standalone="no"?>
<!-- Created with Inkscape (http://www.inkscape.org/) -->

<svg
   width="927.65619mm"
   height="114.39263mm"
   viewBox="0 0 927.65621 114.39263"
   version="1.1"
   id="svg1"
   sodipodi:docname="eb_logo_full.svg"
   inkscape:version="1.4.3 (0d15f75042, 2025-12-25)"
   xmlns:inkscape="http://www.inkscape.org/namespaces/inkscape"
   xmlns:sodipodi="http://sodipodi.sourceforge.net/DTD/sodipodi-0.dtd"
   xmlns="http://www.w3.org/2000/svg"
   xmlns:svg="http://www.w3.org/2000/svg">
  <sodipodi:namedview
     id="namedview1"
     pagecolor="#ffffff"
     bordercolor="#666666"
     borderopacity="1.0"
     inkscape:showpageshadow="2"
     inkscape:pageopacity="0.0"
     inkscape:pagecheckerboard="0"
     inkscape:deskcolor="#d1d1d1"
     inkscape:document-units="mm"
     inkscape:zoom="0.18879473"
     inkscape:cx="1814.1397"
     inkscape:cy="471.41147"
     inkscape:window-width="1920"
     inkscape:window-height="1014"
     inkscape:window-x="0"
     inkscape:window-y="0"
     inkscape:window-maximized="1"
     inkscape:current-layer="svg1" />
  <defs
     id="defs1" />
  <g
     id="g2"
     transform="translate(12.435608)">
    <path
       d="M 61.184956,75.737053 H -9.3132257e-8 V 70.004408 L 6.2287387,69.398071 Q 7.2209271,69.287828 7.9926293,68.68149 8.819453,68.020031 8.819453,66.9176 V 8.8194524 q 0,-1.1024317 -0.8268237,-1.7638907 Q 7.2209271,6.3941028 6.2287387,6.2838596 L -9.3132257e-8,5.7326438 V -7.5250864e-7 H 57.602053 V 18.024757 H 49.444059 L 47.680168,8.6540876 Q 47.459682,7.8272639 46.908466,7.2209265 46.412372,6.5594675 45.64067,6.5594675 H 24.639347 V 33.072948 h 13.394544 q 0.771703,0 1.322918,-0.71658 0.551216,-0.771702 0.606338,-1.322918 l 1.04731,-7.6619 h 7.000441 v 26.513481 h -7.000441 l -1.04731,-7.6619 q -0.05512,-0.606337 -0.606338,-1.322918 -0.551215,-0.71658 -1.322918,-0.71658 H 24.639347 v 28.773465 h 24.584226 q 0.71658,0 1.322918,-0.771702 0.661459,-0.771702 0.71658,-1.378039 L 52.97184,55.06646 h 8.213116 z"
       id="text1"
       style="font-weight:bold;font-size:112.889px;line-height:1.25;font-family:'Charis SIL';-inkscape-font-specification:'Charis SIL, Bold';fill:#ffcc00;stroke-width:0.264583"
       aria-label="E" />
    <path
       d="m 123.5857,92.39912 q 0,7.93751 -2.48047,12.40236 -2.42535,4.46484 -6.39411,6.50434 -3.91363,2.0395 -8.48872,2.59072 -4.51997,0.49609 -8.709209,0.49609 H 58.762719 v -5.73264 l 6.118495,-0.60634 q 1.04731,-0.11024 1.763891,-0.71658 0.716581,-0.66146 0.716581,-1.76389 V 47.475031 q 0,-1.102432 -0.716581,-1.763891 -0.716581,-0.661459 -1.763891,-0.771702 l -6.118495,-0.551216 v -5.732644 h 36.380244 q 3.031687,0 7.110687,0.551216 4.07899,0.551216 7.9375,2.315106 3.85852,1.708769 6.39411,5.23655 2.59071,3.47266 2.59071,9.370669 0,5.071186 -1.92925,8.433602 -1.92926,3.362417 -4.74046,5.346794 -2.75608,1.984377 -5.40191,2.976565 -2.59072,0.937067 -3.96876,1.212675 3.14193,0.05512 6.66971,0.881945 3.58291,0.771703 6.66972,2.756079 3.14193,1.984377 5.1263,5.512159 1.98438,3.527781 1.98438,9.150182 z M 102.58438,57.948132 q 0,-3.362417 -1.10244,-6.283861 -1.10243,-2.976565 -4.189235,-4.850699 -3.086809,-1.874134 -9.150183,-1.874134 -0.606337,0 -1.157553,0.05512 -0.496095,0 -3.47266,0.220486 v 26.844211 q 0,0 1.212675,0.05512 1.267796,0.05512 1.598526,0.05512 6.449225,0 9.977006,-1.874134 3.527781,-1.929255 4.905824,-5.126307 1.37804,-3.252174 1.37804,-7.220927 z m 4.07899,35.22269 q 0,-7.276048 -4.18924,-10.80383 -4.189237,-3.527781 -13.33942,-3.527781 -0.826823,0 -2.039498,0 -1.212675,0 -3.582903,0.110243 v 28.773466 q 0,0 1.157553,0.0551 1.212675,0.0551 2.480471,0.11024 1.322918,0.0551 1.653648,0.0551 8.654088,0 13.229179,-3.3073 4.63021,-3.30729 4.63021,-11.465288 z"
       id="text2"
       style="font-weight:bold;font-size:112.889px;line-height:1.25;font-family:'Charis SIL';-inkscape-font-specification:'Charis SIL, Bold';fill:#1040a0;stroke-width:0.264583"
       aria-label="B" />
  </g>
  <path
     d="m 234.33038,93.16851 h -53.56021 v -5.018253 l 5.45252,-0.530777 q 0.86855,-0.0965 1.54408,-0.627282 0.72379,-0.579029 0.72379,-1.544078 V 34.590047 q 0,-0.965049 -0.72379,-1.544078 -0.67553,-0.579029 -1.54408,-0.675534 l -5.45252,-0.482525 v -5.018253 h 50.4238 v 15.778548 h -7.14136 l -1.54408,-8.202915 q -0.19301,-0.723787 -0.67553,-1.254564 -0.43428,-0.579029 -1.10981,-0.579029 h -18.38418 v 23.209424 h 11.72534 q 0.67554,0 1.15806,-0.627282 0.48253,-0.675534 0.53078,-1.158058 l 0.9168,-6.70709 h 6.12806 v 23.209425 h -6.12806 l -0.9168,-6.70709 q -0.0482,-0.530777 -0.53078,-1.158058 -0.48252,-0.627282 -1.15806,-0.627282 H 202.33901 V 87.23346 h 21.52059 q 0.62728,0 1.15806,-0.675534 0.57903,-0.675534 0.62728,-1.206311 l 1.49582,-10.27777 h 7.18962 z m 33.14943,0 h -27.31088 v -4.632234 l 4.87349,-0.289515 q 2.17136,-0.144757 2.17136,-2.316117 V 29.041016 h -7.04485 v -4.053205 l 15.15126,-4.970001 h 5.01826 v 65.912834 q 0,2.17136 2.17136,2.316117 l 4.97,0.289515 z m 51.96788,-4.632234 q 0,0 -2.60563,1.495826 -2.60563,1.447573 -7.28612,2.895146 -4.68049,1.447573 -10.9533,1.447573 -8.39593,0 -13.99321,-3.329418 -5.59729,-3.329418 -8.39593,-8.926702 -2.79864,-5.597283 -2.79864,-12.449129 0,-7.479129 3.08816,-13.317674 3.08815,-5.886798 8.68544,-9.216216 5.59728,-3.377671 13.12466,-3.377671 7.76864,0 12.40088,3.232913 4.63223,3.232914 6.65883,8.395925 2.07486,5.163011 2.07486,10.905052 v 2.364369 h -32.42564 q 0,8.058158 3.9567,12.786897 4.00495,4.728739 11.29107,4.728739 4.97,0 8.8302,-1.39932 3.90845,-1.399321 6.12806,-2.750389 2.21961,-1.399321 2.21961,-1.399321 z M 305.30972,63.10724 v -2.17136 q 0,-4.728739 -1.88184,-8.009905 -1.83359,-3.329419 -6.22457,-3.329419 -3.61893,0 -5.74204,2.074855 -2.1231,2.074855 -3.0399,5.211264 -0.9168,3.088156 -0.9168,6.224565 z m 103.93575,30.06127 h -24.22272 v -4.632234 l 3.08815,-0.289515 q 0.86855,-0.0965 1.54408,-0.723786 0.72379,-0.675534 0.72379,-1.592331 V 62.142191 q 0,-3.618933 -1.88185,-6.465827 -1.83359,-2.846894 -6.70708,-2.846894 -2.31612,0 -4.53573,0.530777 -2.17136,0.530776 -3.37768,1.061553 v 31.508844 q 0,0.916797 0.62729,1.592331 0.62728,0.627282 1.54407,0.723786 l 3.08816,0.289515 v 4.632234 h -23.7402 v -4.632234 l 3.0399,-0.289515 q 0.9168,-0.0965 1.54408,-0.723786 0.67554,-0.675534 0.67554,-1.592331 V 62.142191 q 0,-3.618933 -1.97835,-6.465827 -1.97835,-2.846894 -6.56234,-2.846894 -2.9434,0 -5.0665,0.530777 -2.07486,0.530776 -2.89515,1.061553 v 31.508844 q 0,0.916797 0.67554,1.592331 0.67553,0.627282 1.59233,0.723786 l 3.0399,0.289515 v 4.632234 h -24.31923 v -4.632234 l 3.66718,-0.289515 q 0.9168,-0.0965 1.54408,-0.723786 0.62728,-0.675534 0.62728,-1.592331 V 52.82947 h -6.32107 v -4.053205 l 14.52399,-5.018254 h 4.97 v 6.031555 q 1.83359,-1.302816 4.53573,-2.702137 2.75039,-1.39932 5.79029,-2.364369 3.03991,-0.965049 5.83855,-0.965049 3.76369,0 6.17631,1.206311 2.46088,1.158058 3.81194,2.750389 1.39932,1.544078 1.97835,2.750389 2.12311,-1.447573 5.16302,-2.991651 3.0399,-1.544078 6.32107,-2.605632 3.32941,-1.109806 6.12806,-1.109806 4.48747,0 7.18961,1.688835 2.70214,1.640583 4.10146,4.14971 1.39932,2.460875 1.83359,5.018254 0.48252,2.509127 0.48252,4.246215 v 27.069619 q 0,0.916797 0.62729,1.592331 0.67553,0.627282 1.54407,0.723786 l 3.57068,0.289515 z m 51.96789,-4.632234 q 0,0 -2.60563,1.495826 -2.60563,1.447573 -7.28612,2.895146 -4.68049,1.447573 -10.9533,1.447573 -8.39593,0 -13.99321,-3.329418 -5.59729,-3.329418 -8.39593,-8.926702 -2.79864,-5.597283 -2.79864,-12.449129 0,-7.479129 3.08816,-13.317674 3.08815,-5.886798 8.68544,-9.216216 5.59728,-3.377671 13.12466,-3.377671 7.76864,0 12.40088,3.232913 4.63223,3.232914 6.65884,8.395925 2.07485,5.163011 2.07485,10.905052 v 2.364369 h -32.42564 q 0,8.058158 3.9567,12.786897 4.00495,4.728739 11.29107,4.728739 4.97,0 8.8302,-1.39932 3.90845,-1.399321 6.12806,-2.750389 2.21961,-1.399321 2.21961,-1.399321 z M 447.0754,63.10724 v -2.17136 q 0,-4.728739 -1.88185,-8.009905 -1.83359,-3.329419 -6.22456,-3.329419 -3.61894,0 -5.74205,2.074855 -2.1231,2.074855 -3.0399,5.211264 -0.9168,3.088156 -0.9168,6.224565 z m 75.3703,30.06127 h -24.31923 v -4.632234 l 3.66718,-0.289515 q 0.9168,-0.0965 1.54408,-0.723786 0.62728,-0.675534 0.62728,-1.592331 V 62.72122 q 0,-3.76369 -1.83359,-6.803594 -1.83359,-3.088156 -6.27282,-3.088156 -2.94339,0 -5.54903,0.434272 -2.60563,0.434272 -3.90844,0.868544 v 31.798358 q 0,0.916797 0.67553,1.592331 0.67553,0.627282 1.59233,0.723786 l 2.9434,0.289515 v 4.632234 h -24.17447 v -4.632234 l 3.52243,-0.289515 q 0.91679,-0.0965 1.54407,-0.723786 0.62729,-0.675534 0.62729,-1.592331 V 52.82947 h -6.8036 v -4.053205 l 14.91001,-5.018254 h 5.16301 v 6.031555 q 1.88184,-1.302816 4.72874,-2.702137 2.89514,-1.39932 6.17631,-2.364369 3.28116,-0.965049 6.36932,-0.965049 5.69379,0 8.58893,2.509127 2.89515,2.509127 3.8602,6.465827 1.0133,3.908448 1.0133,8.202915 v 24.994764 q 0,0.916797 0.67554,1.592331 0.67553,0.627282 1.59233,0.723786 l 3.0399,0.289515 z m 40.24253,-2.171359 q -2.50912,1.061553 -6.9966,2.219612 -4.43922,1.158058 -8.8302,1.158058 -6.56233,0 -9.26447,-2.943398 -2.70213,-2.991652 -2.70213,-9.216217 V 51.285392 h -6.51408 v -3.956701 l 7.62388,-4.535729 5.30777,-10.519032 h 6.85185 v 12.690392 h 13.70369 v 6.32107 h -13.70369 v 26.876609 q 0,4.72874 2.07485,6.658837 2.07486,1.930098 6.03156,1.930098 1.68883,0 3.52243,-0.241262 1.83359,-0.241263 2.89514,-0.434272 z m 53.36722,2.171359 h -18.38418 l -1.30282,-4.921749 q -1.83359,1.302816 -4.68048,2.75039 -2.79864,1.39932 -6.07981,2.364369 -3.23291,1.013301 -6.41757,1.013301 -5.35603,0 -9.16797,-3.474175 -3.76369,-3.474176 -3.76369,-9.312721 0,-3.329419 0.96505,-5.886798 0.96505,-2.605632 3.9567,-4.776992 2.99165,-2.219612 9.02321,-4.246215 6.0798,-2.074855 16.26107,-4.342719 0,-0.820292 0,-1.930098 0.0482,-1.158059 0.0965,-1.930098 0.0483,-1.881845 -0.62728,-4.004952 -0.67553,-2.123108 -2.70213,-3.618933 -1.97835,-1.544078 -5.93505,-1.544078 -1.49583,0 -2.60564,0.144757 -1.1098,0.144757 -1.64058,0.241262 v 9.360974 h -10.18126 q -1.44758,0.193009 -2.9434,-0.530777 -1.49583,-0.772039 -1.49583,-2.991652 0,-2.750389 1.9301,-4.921749 1.9301,-2.171359 5.11476,-3.715437 3.23291,-1.544079 7.14136,-2.316118 3.90845,-0.820291 7.81689,-0.820291 5.69379,0 9.98826,1.254563 4.29447,1.206311 6.70709,4.825244 2.41262,3.570681 2.41262,10.712042 v 25.380784 q 0,0.916797 0.62728,1.592331 0.62728,0.627282 1.54408,0.723786 l 4.34272,0.289515 z m -19.687,-9.167963 V 67.691222 q -6.36932,1.254563 -9.89175,2.702136 -3.47417,1.447574 -4.87349,3.474176 -1.35107,1.97835 -1.35107,4.970001 0,3.039904 1.97835,5.211264 1.97835,2.123107 5.06651,2.123107 2.31611,0 4.92174,-0.723786 2.60564,-0.772039 4.14971,-1.447573 z m 51.53361,9.167963 h -27.31088 v -4.632234 l 4.87349,-0.289515 q 2.17136,-0.144757 2.17136,-2.316117 V 29.041016 h -7.04485 v -4.053205 l 15.15126,-4.970001 h 5.01826 v 65.912834 q 0,2.17136 2.17136,2.316117 l 4.97,0.289515 z m 91.1971,-19.252724 q 0,6.948352 -2.17136,10.8568 -2.1231,3.908447 -5.59728,5.693788 -3.42592,1.78534 -7.43088,2.267864 -3.9567,0.434272 -7.62388,0.434272 h -33.92147 v -5.018253 l 5.35602,-0.530777 q 0.9168,-0.0965 1.54408,-0.627282 0.62728,-0.579029 0.62728,-1.544078 V 34.590047 q 0,-0.965049 -0.62728,-1.544078 -0.62728,-0.579029 -1.54408,-0.675534 l -5.35602,-0.482525 v -5.018253 h 31.84661 q 2.65389,0 6.22457,0.482524 3.57068,0.482524 6.94835,2.026602 3.37767,1.495826 5.59728,4.583982 2.26787,3.039904 2.26787,8.202915 0,4.439225 -1.68884,7.382624 -1.68883,2.943399 -4.14971,4.680487 -2.41262,1.737087 -4.72874,2.605631 -2.26786,0.820292 -3.47417,1.061554 2.75039,0.04825 5.83854,0.772039 3.13641,0.675534 5.83855,2.412622 2.75039,1.737088 4.48747,4.825244 1.73709,3.088157 1.73709,8.009905 z M 720.71498,43.758011 q 0,-2.943399 -0.96505,-5.500778 -0.96505,-2.605632 -3.66718,-4.246215 -2.70214,-1.640583 -8.00991,-1.640583 -0.53077,0 -1.0133,0.04825 -0.43427,0 -3.0399,0.19301 v 23.498939 q 0,0 1.06155,0.04825 1.10981,0.04825 1.39932,0.04825 5.64554,0 8.73369,-1.640583 3.08816,-1.688836 4.29447,-4.487477 1.20631,-2.846894 1.20631,-6.32107 z m 3.57068,30.83331 q 0,-6.369323 -3.66718,-9.457479 -3.66719,-3.088156 -11.67709,-3.088156 -0.72379,0 -1.78534,0 -1.06156,0 -3.13641,0.0965 v 25.187774 q 0,0 1.0133,0.04825 1.06155,0.04825 2.17136,0.0965 1.15806,0.04825 1.44757,0.04825 7.57564,0 11.58059,-2.895147 4.0532,-2.895146 4.0532,-10.036507 z m 71.4619,18.577189 h -18.38418 l -1.30282,-4.921749 q -1.83359,1.302816 -4.68048,2.75039 -2.79865,1.39932 -6.07981,2.364369 -3.23292,1.013301 -6.41758,1.013301 -5.35602,0 -9.16796,-3.474175 -3.76369,-3.474176 -3.76369,-9.312721 0,-3.329419 0.96505,-5.886798 0.96505,-2.605632 3.9567,-4.776992 2.99165,-2.219612 9.0232,-4.246215 6.07981,-2.074855 16.26108,-4.342719 0,-0.820292 0,-1.930098 0.0483,-1.158059 0.0965,-1.930098 0.0483,-1.881845 -0.62728,-4.004952 -0.67553,-2.123108 -2.70214,-3.618933 -1.97835,-1.544078 -5.93505,-1.544078 -1.49582,0 -2.60563,0.144757 -1.1098,0.144757 -1.64058,0.241262 v 9.360974 h -10.18127 q -1.44757,0.193009 -2.94339,-0.530777 -1.49583,-0.772039 -1.49583,-2.991652 0,-2.750389 1.9301,-4.921749 1.93009,-2.171359 5.11476,-3.715437 3.23291,-1.544079 7.14136,-2.316118 3.90844,-0.820291 7.81689,-0.820291 5.69379,0 9.98826,1.254563 4.29447,1.206311 6.70709,4.825244 2.41262,3.570681 2.41262,10.712042 v 25.380784 q 0,0.916797 0.62728,1.592331 0.62728,0.627282 1.54408,0.723786 l 4.34272,0.289515 z m -19.687,-9.167963 V 67.691222 q -6.36932,1.254563 -9.89175,2.702136 -3.47417,1.447574 -4.87349,3.474176 -1.35107,1.97835 -1.35107,4.970001 0,3.039904 1.97835,5.211264 1.97835,2.123107 5.0665,2.123107 2.31612,0 4.92175,-0.723786 2.60563,-0.772039 4.14971,-1.447573 z M 836.7621,60.067336 h -6.12806 l -1.06155,-7.9134 q -2.12311,-2.460875 -7.72039,-2.460875 -3.47418,0 -5.45253,1.447573 -1.97835,1.399321 -1.97835,4.004953 0,2.943399 3.0399,5.066506 3.03991,2.123108 6.94836,4.101458 3.32941,1.640583 6.51408,3.618933 3.23291,1.930097 5.30776,4.535729 2.12311,2.55738 2.12311,6.272818 0,5.74204 -2.99165,9.167963 -2.99165,3.425924 -7.62389,4.970002 -4.63223,1.495825 -9.55398,1.495825 -5.30777,0 -10.18126,-0.916796 -4.82525,-0.916796 -7.38263,-1.78534 V 76.666176 h 6.22457 l 1.15806,9.071459 q 0.14475,0.289514 1.78534,0.965048 1.64058,0.675535 3.71543,1.254564 2.12311,0.579029 3.71544,0.579029 3.37767,0 5.21127,-1.109806 1.83359,-1.109806 2.55738,-2.605632 0.72378,-1.495826 0.72378,-2.605632 0,-2.991651 -2.89514,-4.825244 -2.8469,-1.881845 -7.33438,-3.9567 -7.38262,-3.474176 -10.85679,-6.658837 -3.42593,-3.232913 -3.42593,-8.009905 0,-4.583982 2.55738,-7.961653 2.55738,-3.377671 7.04486,-5.211263 4.48747,-1.833593 10.22951,-1.833593 5.35603,0 9.55399,0.916796 4.24621,0.868544 6.17631,1.737088 z m 29.048,-32.42564 q 0,3.184661 -2.26786,5.452525 -2.26787,2.267865 -5.45253,2.267865 -3.18466,0 -5.40427,-2.267865 -2.21961,-2.267864 -2.21961,-5.452525 0,-3.184662 2.21961,-5.404274 2.21961,-2.219612 5.40427,-2.219612 3.18466,0 5.45253,2.219612 2.26786,2.219612 2.26786,5.404274 z m 5.64554,65.526814 h -26.87661 v -4.632234 l 4.53573,-0.289515 q 0.86854,-0.0965 1.49583,-0.723786 0.67553,-0.675534 0.67553,-1.592331 V 52.732965 h -6.32107 V 48.67976 l 14.42748,-4.921749 h 5.01825 v 42.172633 q 0,0.916797 0.67554,1.592331 0.72378,0.627282 1.59233,0.723786 l 4.77699,0.289515 z m 42.17261,-33.101174 h -6.12806 l -1.06155,-7.9134 q -2.12311,-2.460875 -7.72039,-2.460875 -3.47418,0 -5.45253,1.447573 -1.97835,1.399321 -1.97835,4.004953 0,2.943399 3.0399,5.066506 3.03991,2.123108 6.94836,4.101458 3.32941,1.640583 6.51408,3.618933 3.23291,1.930097 5.30776,4.535729 2.12311,2.55738 2.12311,6.272818 0,5.74204 -2.99165,9.167963 -2.99165,3.425924 -7.62389,4.970002 -4.63223,1.495825 -9.55398,1.495825 -5.30777,0 -10.18126,-0.916796 -4.82525,-0.916796 -7.38263,-1.78534 V 76.666176 h 6.22457 l 1.15806,9.071459 q 0.14475,0.289514 1.78534,0.965048 1.64058,0.675535 3.71543,1.254564 2.12311,0.579029 3.71544,0.579029 3.37767,0 5.21127,-1.109806 1.83359,-1.109806 2.55738,-2.605632 0.72378,-1.495826 0.72378,-2.605632 0,-2.991651 -2.89514,-4.825244 -2.8469,-1.881845 -7.33438,-3.9567 -7.38262,-3.474176 -10.8568,-6.658837 -3.42592,-3.232913 -3.42592,-8.009905 0,-4.583982 2.55738,-7.961653 2.55738,-3.377671 7.04486,-5.211263 4.48747,-1.833593 10.22951,-1.833593 5.35603,0 9.55399,0.916796 4.24621,0.868544 6.17631,1.737088 z"
     id="text3"
     style="font-weight:bold;font-size:98.821px;line-height:0.95;font-family:'Charis SIL';-inkscape-font-specification:'Charis SIL, Bold';text-align:center;text-anchor:middle;stroke-width:0.231611"
     aria-label="Elemental Basis" />
</svg>
