<?xml version="1.0" encoding="UTF-8" standalone="no"?>
<!-- Created with Inkscape (http://www.inkscape.org/) -->

<svg
   width="466.45319mm"
   height="114.39263mm"
   viewBox="0 0 466.4532 114.39263"
   version="1.1"
   id="svg1"
   sodipodi:docname="eb_logo_full.svg"
   inkscape:version="1.4.3 (0d15f75042, 2025-12-25)"
   xmlns:inkscape="http://www.inkscape.org/namespaces/inkscape"
   xmlns:sodipodi="http://sodipodi.sourceforge.net/DTD/sodipodi-0.dtd"
   xmlns="http://www.w3.org/2000/svg"
   xmlns:svg="http://www.w3.org/2000/svg">
  <sodipodi:namedview
     id="namedview1"
     pagecolor="#ffffff"
     bordercolor="#666666"
     borderopacity="1.0"
     inkscape:showpageshadow="2"
     inkscape:pageopacity="0.0"
     inkscape:pagecheckerboard="0"
     inkscape:deskcolor="#d1d1d1"
     inkscape:document-units="mm"
     inkscape:zoom="0.23279718"
     inkscape:cx="1020.2014"
     inkscape:cy="1048.1227"
     inkscape:window-width="1920"
     inkscape:window-height="1014"
     inkscape:window-x="0"
     inkscape:window-y="0"
     inkscape:window-maximized="1"
     inkscape:current-layer="svg1" />
  <defs
     id="defs1" />
  <g
     id="g2">
    <path
       d="M 61.184956,75.737053 H -9.3132257e-8 V 70.004408 L 6.2287387,69.398071 Q 7.2209271,69.287828 7.9926293,68.68149 8.819453,68.020031 8.819453,66.9176 V 8.8194524 q 0,-1.1024317 -0.8268237,-1.7638907 Q 7.2209271,6.3941028 6.2287387,6.2838596 L -9.3132257e-8,5.7326438 V -7.5250864e-7 H 57.602053 V 18.024757 H 49.444059 L 47.680168,8.6540876 Q 47.459682,7.8272639 46.908466,7.2209265 46.412372,6.5594675 45.64067,6.5594675 H 24.639347 V 33.072948 h 13.394544 q 0.771703,0 1.322918,-0.71658 0.551216,-0.771702 0.606338,-1.322918 l 1.04731,-7.6619 h 7.000441 v 26.513481 h -7.000441 l -1.04731,-7.6619 q -0.05512,-0.606337 -0.606338,-1.322918 -0.551215,-0.71658 -1.322918,-0.71658 H 24.639347 v 28.773465 h 24.584226 q 0.71658,0 1.322918,-0.771702 0.661459,-0.771702 0.71658,-1.378039 L 52.97184,55.06646 h 8.213116 z"
       id="text1"
       style="font-weight:bold;font-size:112.889px;line-height:1.25;font-family:'Charis SIL';-inkscape-font-specification:'Charis SIL, Bold';fill:#ffcc00;stroke-width:0.264583"
       aria-label="E" />
    <path
       d="m 123.5857,92.39912 q 0,7.93751 -2.48047,12.40236 -2.42535,4.46484 -6.39411,6.50434 -3.91363,2.0395 -8.48872,2.59072 -4.51997,0.49609 -8.709209,0.49609 H 58.762719 v -5.73264 l 6.118495,-0.60634 q 1.04731,-0.11024 1.763891,-0.71658 0.716581,-0.66146 0.716581,-1.76389 V 47.475031 q 0,-1.102432 -0.716581,-1.763891 -0.716581,-0.661459 -1.763891,-0.771702 l -6.118495,-0.551216 v -5.732644 h 36.380244 q 3.031687,0 7.110687,0.551216 4.07899,0.551216 7.9375,2.315106 3.85852,1.708769 6.39411,5.23655 2.59071,3.47266 2.59071,9.370669 0,5.071186 -1.92925,8.433602 -1.92926,3.362417 -4.74046,5.346794 -2.75608,1.984377 -5.40191,2.976565 -2.59072,0.937067 -3.96876,1.212675 3.14193,0.05512 6.66971,0.881945 3.58291,0.771703 6.66972,2.756079 3.14193,1.984377 5.1263,5.512159 1.98438,3.527781 1.98438,9.150182 z M 102.58438,57.948132 q 0,-3.362417 -1.10244,-6.283861 -1.10243,-2.976565 -4.189235,-4.850699 -3.086809,-1.874134 -9.150183,-1.874134 -0.606337,0 -1.157553,0.05512 -0.496095,0 -3.47266,0.220486 v 26.844211 q 0,0 1.212675,0.05512 1.267796,0.05512 1.598526,0.05512 6.449225,0 9.977006,-1.874134 3.527781,-1.929255 4.905824,-5.126307 1.37804,-3.252174 1.37804,-7.220927 z m 4.07899,35.22269 q 0,-7.276048 -4.18924,-10.80383 -4.189237,-3.527781 -13.33942,-3.527781 -0.826823,0 -2.039498,0 -1.212675,0 -3.582903,0.110243 v 28.773466 q 0,0 1.157553,0.0551 1.212675,0.0551 2.480471,0.11024 1.322918,0.0551 1.653648,0.0551 8.654088,0 13.229179,-3.3073 4.63021,-3.30729 4.63021,-11.465288 z"
       id="text2"
       style="font-weight:bold;font-size:112.889px;line-height:1.25;font-family:'Charis SIL';-inkscape-font-specification:'Charis SIL, Bold';fill:#1040a0;stroke-width:0.264583"
       aria-label="B" />
  </g>
  <g
     id="text4"
     style="font-weight:bold;font-size:65.525px;line-height:0.85;font-family:'Charis SIL';-inkscape-font-specification:'Charis SIL, Bold';stroke-width:0.153575;fill:#2e2e2e;fill-opacity:1"
     aria-label="Elemental&#10;Basis">
    <path
       d="m 192.22721,53.200184 h -35.51404 v -3.327442 l 3.61539,-0.351941 q 0.57591,-0.06399 1.02383,-0.41593 0.47992,-0.383935 0.47992,-1.023828 v -33.72234 q 0,-0.639892 -0.47992,-1.023828 -0.44792,-0.383935 -1.02383,-0.447924 l -3.61539,-0.319947 V 9.2395627 h 33.43439 V 19.701807 h -4.73521 l -1.02382,-5.439087 q -0.12798,-0.47992 -0.44793,-0.831861 -0.28795,-0.383935 -0.73588,-0.383935 h -12.18995 v 15.389417 h 7.7747 q 0.44792,0 0.76787,-0.415931 0.31994,-0.447924 0.35194,-0.767871 l 0.6079,-4.447253 h 4.06331 v 15.389417 h -4.06331 l -0.6079,-4.447254 q -0.032,-0.351941 -0.35194,-0.767871 -0.31995,-0.41593 -0.76787,-0.41593 h -7.7747 v 16.701196 h 14.26961 q 0.41593,0 0.76787,-0.447924 0.38393,-0.447925 0.41593,-0.799866 l 0.99183,-6.814856 h 4.7672 z m 21.98031,0 h -18.10896 v -3.071485 l 3.23146,-0.191967 q 1.43976,-0.09598 1.43976,-1.535743 V 10.679321 h -4.67122 V 7.9917722 l 10.04631,-3.2954469 h 3.32744 V 48.400989 q 0,1.439759 1.43976,1.535743 l 3.29545,0.191967 z m 34.45821,-3.071485 q 0,0 -1.72771,0.991834 -1.72771,0.959839 -4.83118,1.919678 -3.10348,0.959839 -7.26279,0.959839 -5.56706,0 -9.27844,-2.20763 -3.71138,-2.207629 -5.56706,-5.919006 -1.85569,-3.711377 -1.85569,-8.254615 0,-4.959167 2.04765,-8.830518 2.04766,-3.903344 5.75904,-6.110974 3.71137,-2.239624 8.70254,-2.239624 5.15113,0 8.22262,2.14364 3.07148,2.14364 4.41526,5.567066 1.37576,3.423425 1.37576,7.230786 v 1.567737 h -21.50039 q 0,5.343103 2.62356,8.478577 2.65556,3.135474 7.48675,3.135474 3.29544,0 5.85501,-0.927845 2.59157,-0.927844 4.06332,-1.823694 1.47175,-0.927844 1.47175,-0.927844 z M 239.29131,33.26753 v -1.439759 q 0,-3.135473 -1.24779,-5.311108 -1.2158,-2.20763 -4.12731,-2.20763 -2.3996,0 -3.80736,1.375769 -1.40776,1.375769 -2.01566,3.45542 -0.6079,2.047657 -0.6079,4.127308 z m 68.91643,19.932654 h -16.0613 v -3.071485 l 2.04765,-0.191967 q 0.57591,-0.06399 1.02383,-0.47992 0.47992,-0.447925 0.47992,-1.055823 V 32.627637 q 0,-2.399597 -1.24779,-4.28728 -1.2158,-1.887684 -4.44725,-1.887684 -1.53575,0 -3.0075,0.351941 -1.43976,0.351941 -2.23962,0.703882 v 20.892493 q 0,0.607898 0.41593,1.055823 0.41593,0.41593 1.02383,0.47992 l 2.04765,0.191967 v 3.071485 h -15.74136 v -3.071485 l 2.01567,-0.191967 q 0.60789,-0.06399 1.02382,-0.47992 0.44793,-0.447925 0.44793,-1.055823 V 32.627637 q 0,-2.399597 -1.31178,-4.28728 -1.31178,-1.887684 -4.35127,-1.887684 -1.95167,0 -3.35944,0.351941 -1.37577,0.351941 -1.91967,0.703882 v 20.892493 q 0,0.607898 0.44792,1.055823 0.44792,0.41593 1.05582,0.47992 l 2.01566,0.191967 v 3.071485 H 252.4411 v -3.071485 l 2.43159,-0.191967 q 0.6079,-0.06399 1.02383,-0.47992 0.41593,-0.447925 0.41593,-1.055823 V 26.452673 h -4.1913 v -2.687548 l 9.63039,-3.327442 h 3.29545 v 3.999329 q 1.21579,-0.863855 3.00749,-1.791699 1.82369,-0.927845 3.83936,-1.567737 2.01566,-0.639893 3.87135,-0.639893 2.49558,0 4.09531,0.799866 1.63172,0.767871 2.52757,1.823694 0.92785,1.023828 1.31178,1.823694 1.40777,-0.959839 3.42343,-1.983667 2.01566,-1.023829 4.1913,-1.72771 2.20763,-0.735877 4.06331,-0.735877 2.9755,0 4.7672,1.119812 1.7917,1.087818 2.71955,2.751538 0.92784,1.631726 1.21579,3.327442 0.31995,1.663721 0.31995,2.815527 v 17.948987 q 0,0.607898 0.41593,1.055823 0.44792,0.41593 1.02383,0.47992 l 2.3676,0.191967 z m 34.45822,-3.071485 q 0,0 -1.72771,0.991834 -1.72771,0.959839 -4.83119,1.919678 -3.10348,0.959839 -7.26278,0.959839 -5.56707,0 -9.27845,-2.20763 -3.71137,-2.207629 -5.56706,-5.919006 -1.85569,-3.711377 -1.85569,-8.254615 0,-4.959167 2.04765,-8.830518 2.04766,-3.903344 5.75904,-6.110974 3.71138,-2.239624 8.70254,-2.239624 5.15113,0 8.22262,2.14364 3.07148,2.14364 4.41526,5.567066 1.37577,3.423425 1.37577,7.230786 v 1.567737 h -21.5004 q 0,5.343103 2.62356,8.478577 2.65556,3.135474 7.48675,3.135474 3.29544,0 5.85501,-0.927845 2.59157,-0.927844 4.06332,-1.823694 1.47176,-0.927844 1.47176,-0.927844 z M 333.29153,33.26753 v -1.439759 q 0,-3.135473 -1.24779,-5.311108 -1.2158,-2.20763 -4.12731,-2.20763 -2.3996,0 -3.80736,1.375769 -1.40776,1.375769 -2.01566,3.45542 -0.6079,2.047657 -0.6079,4.127308 z m 49.97562,19.932654 h -16.12529 v -3.071485 l 2.43159,-0.191967 q 0.6079,-0.06399 1.02383,-0.47992 0.41593,-0.447925 0.41593,-1.055823 V 33.011573 q 0,-2.495582 -1.2158,-4.511243 -1.2158,-2.047657 -4.1593,-2.047657 -1.95167,0 -3.67938,0.287952 -1.72771,0.287952 -2.59157,0.575903 v 21.084461 q 0,0.607898 0.44793,1.055823 0.44792,0.41593 1.05582,0.47992 l 1.95167,0.191967 v 3.071485 h -16.02931 v -3.071485 l 2.33561,-0.191967 q 0.6079,-0.06399 1.02383,-0.47992 0.41593,-0.447925 0.41593,-1.055823 V 26.452673 h -4.51125 v -2.687548 l 9.88635,-3.327442 h 3.42342 v 3.999329 q 1.24779,-0.863855 3.13547,-1.791699 1.91968,-0.927845 4.09532,-1.567737 2.17563,-0.639893 4.22329,-0.639893 3.77536,0 5.69504,1.663721 1.91968,1.663721 2.55957,4.28728 0.67189,2.591565 0.67189,5.439087 v 16.573218 q 0,0.607898 0.44792,1.055823 0.44793,0.41593 1.05583,0.47992 l 2.01566,0.191967 z m 26.68352,-1.439758 q -1.66372,0.703881 -4.63922,1.471752 -2.94351,0.767872 -5.85502,0.767872 -4.35127,0 -6.14297,-1.951673 -1.7917,-1.983667 -1.7917,-6.110974 V 25.428845 h -4.31927 v -2.623559 l 5.05515,-3.007495 3.51941,-6.97483 h 4.54324 v 8.414588 h 9.08647 v 4.191296 h -9.08647 v 17.821009 q 0,3.135474 1.37576,4.415259 1.37577,1.279785 3.99933,1.279785 1.11982,0 2.33561,-0.159973 1.2158,-0.159973 1.91968,-0.287952 z m 35.38605,1.439758 h -12.18995 l -0.86386,-3.263452 q -1.21579,0.863855 -3.10348,1.823694 -1.85568,0.927844 -4.03132,1.567736 -2.14364,0.671888 -4.25528,0.671888 -3.55141,0 -6.07898,-2.303614 -2.49559,-2.303613 -2.49559,-6.174963 0,-2.20763 0.6399,-3.903345 0.63989,-1.72771 2.62356,-3.167468 1.98366,-1.471753 5.98299,-2.815528 4.03133,-1.375769 10.78219,-2.879516 0,-0.543909 0,-1.279786 0.032,-0.767871 0.064,-1.279785 0.032,-1.24779 -0.41593,-2.655554 -0.44792,-1.407764 -1.7917,-2.399597 -1.31178,-1.023828 -3.93534,-1.023828 -0.99183,0 -1.72771,0.09598 -0.73587,0.09598 -1.08781,0.159974 v 6.206958 h -6.75087 q -0.95984,0.127978 -1.95167,-0.351941 -0.99184,-0.511914 -0.99184,-1.983667 0,-1.823694 1.27979,-3.263452 1.27978,-1.439759 3.39143,-2.463587 2.14364,-1.023828 4.7352,-1.535742 2.59157,-0.543909 5.18313,-0.543909 3.77537,0 6.62289,0.83186 2.84752,0.799866 4.44726,3.199463 1.59973,2.367603 1.59973,7.102808 v 16.829175 q 0,0.607898 0.41593,1.055823 0.41593,0.41593 1.02383,0.47992 l 2.87951,0.191967 z m -13.05381,-6.07898 V 36.307019 q -4.22329,0.831861 -6.5589,1.7917 -2.30361,0.959839 -3.23145,2.303613 -0.89585,1.31178 -0.89585,3.295447 0,2.015662 1.31178,3.45542 1.31178,1.407764 3.35943,1.407764 1.53575,0 3.26346,-0.47992 1.72771,-0.511914 2.75153,-0.959839 z m 34.17028,6.07898 h -18.10896 v -3.071485 l 3.23145,-0.191967 q 1.43976,-0.09598 1.43976,-1.535743 V 10.679321 h -4.67121 V 7.9917722 l 10.04631,-3.2954469 h 3.32744 V 48.400989 q 0,1.439759 1.43976,1.535743 l 3.29545,0.191967 z"
       id="path4"
       style="fill:#2e2e2e;fill-opacity:1" />
    <path
       d="m 194.46683,96.130579 q 0,4.607231 -1.43975,7.198791 -1.40777,2.59157 -3.71138,3.77537 -2.27162,1.1838 -4.92717,1.50375 -2.62356,0.28795 -5.05516,0.28795 H 156.84115 V 105.569 l 3.5514,-0.35195 q 0.6079,-0.064 1.02383,-0.41593 0.41593,-0.38393 0.41593,-1.02382 V 70.054956 q 0,-0.639892 -0.41593,-1.023828 -0.41593,-0.383935 -1.02383,-0.447925 l -3.5514,-0.319946 v -3.327441 h 21.11646 q 1.7597,0 4.1273,0.319946 2.36761,0.319946 4.60723,1.343774 2.23962,0.991834 3.71138,3.03949 1.50374,2.015662 1.50374,5.439087 0,2.943506 -1.11981,4.895179 -1.11981,1.951672 -2.75154,3.103479 -1.59973,1.151806 -3.13547,1.72771 -1.50375,0.543908 -2.30361,0.703881 1.82369,0.03199 3.87135,0.511915 2.07965,0.447924 3.87135,1.599731 1.82369,1.151807 2.9755,3.199463 1.1518,2.047656 1.1518,5.311108 z M 182.27688,76.133936 q 0,-1.951672 -0.63989,-3.647388 -0.63989,-1.72771 -2.43159,-2.815527 -1.7917,-1.087818 -5.31111,-1.087818 -0.35194,0 -0.67189,0.032 -0.28795,0 -2.01566,0.127979 v 15.581384 q 0,0 0.70388,0.03199 0.73588,0.03199 0.92784,0.03199 3.74338,0 5.79103,-1.087817 2.04766,-1.119812 2.84752,-2.975501 0.79987,-1.887683 0.79987,-4.191296 z m 2.3676,20.444568 q 0,-4.223291 -2.43159,-6.270947 -2.43159,-2.047656 -7.7427,-2.047656 -0.47992,0 -1.1838,0 -0.70388,0 -2.07965,0.06399 v 16.7012 q 0,0 0.67189,0.032 0.70388,0.032 1.43975,0.064 0.76788,0.032 0.95984,0.032 5.02316,0 7.67871,-1.91968 2.68755,-1.91968 2.68755,-6.654886 z m 47.38405,12.317936 h -12.18995 l -0.86386,-3.26346 q -1.2158,0.86386 -3.10348,1.8237 -1.85569,0.92784 -4.03132,1.56774 -2.14364,0.67188 -4.25529,0.67188 -3.5514,0 -6.07898,-2.30361 -2.49558,-2.30361 -2.49558,-6.17496 0,-2.207634 0.63989,-3.903349 0.6399,-1.72771 2.62356,-3.167469 1.98367,-1.471753 5.983,-2.815527 4.03132,-1.375769 10.78219,-2.879517 0,-0.543908 0,-1.279785 0.032,-0.767871 0.064,-1.279785 0.032,-1.247791 -0.41593,-2.655554 -0.44793,-1.407764 -1.7917,-2.399597 -1.31178,-1.023829 -3.93534,-1.023829 -0.99183,0 -1.72771,0.09598 -0.73588,0.09598 -1.08782,0.159973 v 6.206959 h -6.75086 q -0.95984,0.127978 -1.95168,-0.351941 -0.99183,-0.511914 -0.99183,-1.983667 0,-1.823694 1.27979,-3.263453 1.27978,-1.439758 3.39143,-2.463586 2.14364,-1.023828 4.7352,-1.535742 2.59157,-0.543909 5.18313,-0.543909 3.77537,0 6.62289,0.83186 2.84752,0.799866 4.44725,3.199463 1.59973,2.367603 1.59973,7.102808 v 16.829173 q 0,0.6079 0.41593,1.05583 0.41593,0.41593 1.02383,0.47991 l 2.87952,0.19197 z m -13.05381,-6.07898 V 92.003272 q -4.22329,0.831861 -6.5589,1.7917 -2.30361,0.959838 -3.23146,2.303613 -0.89585,1.31178 -0.89585,3.295447 0,2.015658 1.31178,3.455418 1.31178,1.40777 3.35944,1.40777 1.53574,0 3.26345,-0.47992 1.72771,-0.51192 2.75154,-0.95984 z m 40.24925,-15.869339 h -4.06332 l -0.70388,-5.247119 q -1.40776,-1.631727 -5.11914,-1.631727 -2.30361,0 -3.61539,0.959839 -1.31178,0.927845 -1.31178,2.655555 0,1.951672 2.01566,3.359436 2.01566,1.407763 4.60722,2.719543 2.20763,1.087818 4.31928,2.399597 2.14364,1.279786 3.51941,3.007496 1.40776,1.695715 1.40776,4.159301 0,3.807358 -1.98367,6.078978 -1.98366,2.27162 -5.05515,3.29545 -3.07148,0.99183 -6.33493,0.99183 -3.51941,0 -6.75087,-0.6079 -3.19946,-0.60789 -4.89518,-1.1838 v -9.950327 h 4.12731 l 0.76787,6.014987 q 0.096,0.19197 1.1838,0.6399 1.08782,0.44792 2.46359,0.83186 1.40776,0.38393 2.46358,0.38393 2.23963,0 3.45542,-0.73587 1.2158,-0.73588 1.69572,-1.72771 0.47992,-0.99184 0.47992,-1.72771 0,-1.983671 -1.91968,-3.199467 -1.88768,-1.247791 -4.86318,-2.62356 -4.89518,-2.303613 -7.19879,-4.415259 -2.27162,-2.14364 -2.27162,-5.311108 0,-3.03949 1.69571,-5.279114 1.69572,-2.239624 4.67122,-3.45542 2.9755,-1.215796 6.78286,-1.215796 3.5514,0 6.33494,0.607898 2.81552,0.575903 4.09531,1.151807 z M 278.48473,65.44773 q 0,2.111645 -1.50375,3.615393 -1.50374,1.503747 -3.61539,1.503747 -2.11165,0 -3.5834,-1.503747 -1.47175,-1.503748 -1.47175,-3.615393 0,-2.111646 1.47175,-3.583399 1.47175,-1.471753 3.5834,-1.471753 2.11165,0 3.61539,1.471753 1.50375,1.471753 1.50375,3.583399 z m 3.74337,43.44871 h -17.82101 v -3.07149 l 3.0075,-0.19197 q 0.5759,-0.064 0.99183,-0.47991 0.44793,-0.44793 0.44793,-1.05583 V 82.084937 h -4.1913 v -2.687549 l 9.5664,-3.263452 h 3.32744 v 27.963304 q 0,0.6079 0.44792,1.05583 0.47992,0.41593 1.05582,0.47991 l 3.16747,0.19197 z m 27.96331,-21.948319 h -4.06332 l -0.70388,-5.247119 q -1.40777,-1.631727 -5.11914,-1.631727 -2.30362,0 -3.6154,0.959839 -1.31178,0.927845 -1.31178,2.655555 0,1.951672 2.01566,3.359436 2.01567,1.407763 4.60723,2.719543 2.20763,1.087818 4.31928,2.399597 2.14364,1.279786 3.51941,3.007496 1.40776,1.695715 1.40776,4.159301 0,3.807358 -1.98367,6.078978 -1.98366,2.27162 -5.05515,3.29545 -3.07148,0.99183 -6.33494,0.99183 -3.5194,0 -6.75086,-0.6079 -3.19947,-0.60789 -4.89518,-1.1838 v -9.950327 h 4.12731 l 0.76787,6.014987 q 0.096,0.19197 1.1838,0.6399 1.08782,0.44792 2.46359,0.83186 1.40776,0.38393 2.46358,0.38393 2.23963,0 3.45542,-0.73587 1.2158,-0.73588 1.69572,-1.72771 0.47992,-0.99184 0.47992,-1.72771 0,-1.983671 -1.91968,-3.199467 -1.88768,-1.247791 -4.86318,-2.62356 -4.89518,-2.303613 -7.1988,-4.415259 -2.27162,-2.14364 -2.27162,-5.311108 0,-3.03949 1.69572,-5.279114 1.69572,-2.239624 4.67122,-3.45542 2.9755,-1.215796 6.78286,-1.215796 3.5514,0 6.33493,0.607898 2.81553,0.575903 4.09532,1.151807 z"
       id="path5"
       style="fill:#2e2e2e;fill-opacity:1" />
  </g>
</svg>
