<?xml version="1.0" encoding="UTF-8" standalone="no"?>
<!-- Created with Inkscape (http://www.inkscape.org/) -->

<svg
   width="200mm"
   height="200mm"
   viewBox="0 0 200 200"
   version="1.1"
   id="svg1"
   inkscape:version="1.4.3 (0d15f75042, 2025-12-25)"
   sodipodi:docname="eb_logo.svg"
   inkscape:export-filename="eb_logo_square.png"
   inkscape:export-xdpi="182.88"
   inkscape:export-ydpi="182.88"
   xmlns:inkscape="http://www.inkscape.org/namespaces/inkscape"
   xmlns:sodipodi="http://sodipodi.sourceforge.net/DTD/sodipodi-0.dtd"
   xmlns="http://www.w3.org/2000/svg"
   xmlns:svg="http://www.w3.org/2000/svg">
  <sodipodi:namedview
     id="namedview1"
     pagecolor="#ffffff"
     bordercolor="#666666"
     borderopacity="1.0"
     inkscape:showpageshadow="2"
     inkscape:pageopacity="0.0"
     inkscape:pagecheckerboard="0"
     inkscape:deskcolor="#d1d1d1"
     inkscape:document-units="mm"
     inkscape:zoom="0.21597888"
     inkscape:cx="1331.1487"
     inkscape:cy="101.86181"
     inkscape:window-width="1920"
     inkscape:window-height="1014"
     inkscape:window-x="0"
     inkscape:window-y="0"
     inkscape:window-maximized="1"
     inkscape:current-layer="layer1"
     inkscape:export-bgcolor="#ffffffff" />
  <defs
     id="defs1" />
  <g
     inkscape:label="Layer 1"
     inkscape:groupmode="layer"
     id="layer1"
     transform="translate(-3.2071504,-7.8036838)">
    <g
       id="g2"
       transform="translate(41.414301,50.607368)">
      <path
         d="M 61.184956,75.737053 H -9.3132257e-8 V 70.004408 L 6.2287387,69.398071 Q 7.2209271,69.287828 7.9926293,68.68149 8.819453,68.020031 8.819453,66.9176 V 8.8194524 q 0,-1.1024317 -0.8268237,-1.7638907 Q 7.2209271,6.3941028 6.2287387,6.2838596 L -9.3132257e-8,5.7326438 V -7.5250864e-7 H 57.602053 V 18.024757 H 49.444059 L 47.680168,8.6540876 Q 47.459682,7.8272639 46.908466,7.2209265 46.412372,6.5594675 45.64067,6.5594675 H 24.639347 V 33.072948 h 13.394544 q 0.771703,0 1.322918,-0.71658 0.551216,-0.771702 0.606338,-1.322918 l 1.04731,-7.6619 h 7.000441 v 26.513481 h -7.000441 l -1.04731,-7.6619 q -0.05512,-0.606337 -0.606338,-1.322918 -0.551215,-0.71658 -1.322918,-0.71658 H 24.639347 v 28.773465 h 24.584226 q 0.71658,0 1.322918,-0.771702 0.661459,-0.771702 0.71658,-1.378039 L 52.97184,55.06646 h 8.213116 z"
         id="text1"
         style="font-weight:bold;font-size:112.889px;line-height:1.25;font-family:'Charis SIL';-inkscape-font-specification:'Charis SIL, Bold';fill:#ffcc00;stroke-width:0.264583"
         aria-label="E" />
      <path
         d="m 123.5857,92.39912 q 0,7.93751 -2.48047,12.40236 -2.42535,4.46484 -6.39411,6.50434 -3.91363,2.0395 -8.48872,2.59072 -4.51997,0.49609 -8.709209,0.49609 H 58.762719 v -5.73264 l 6.118495,-0.60634 q 1.04731,-0.11024 1.763891,-0.71658 0.716581,-0.66146 0.716581,-1.76389 V 47.475031 q 0,-1.102432 -0.716581,-1.763891 -0.716581,-0.661459 -1.763891,-0.771702 l -6.118495,-0.551216 v -5.732644 h 36.380244 q 3.031687,0 7.110687,0.551216 4.07899,0.551216 7.9375,2.315106 3.85852,1.708769 6.39411,5.23655 2.59071,3.47266 2.59071,9.370669 0,5.071186 -1.92925,8.433602 -1.92926,3.362417 -4.74046,5.346794 -2.75608,1.984377 -5.40191,2.976565 -2.59072,0.937067 -3.96876,1.212675 3.14193,0.05512 6.66971,0.881945 3.58291,0.771703 6.66972,2.756079 3.14193,1.984377 5.1263,5.512159 1.98438,3.527781 1.98438,9.150182 z M 102.58438,57.948132 q 0,-3.362417 -1.10244,-6.283861 -1.10243,-2.976565 -4.189235,-4.850699 -3.086809,-1.874134 -9.150183,-1.874134 -0.606337,0 -1.157553,0.05512 -0.496095,0 -3.47266,0.220486 v 26.844211 q 0,0 1.212675,0.05512 1.267796,0.05512 1.598526,0.05512 6.449225,0 9.977006,-1.874134 3.527781,-1.929255 4.905824,-5.126307 1.37804,-3.252174 1.37804,-7.220927 z m 4.07899,35.22269 q 0,-7.276048 -4.18924,-10.80383 -4.189237,-3.527781 -13.33942,-3.527781 -0.826823,0 -2.039498,0 -1.212675,0 -3.582903,0.110243 v 28.773466 q 0,0 1.157553,0.0551 1.212675,0.0551 2.480471,0.11024 1.322918,0.0551 1.653648,0.0551 8.654088,0 13.229179,-3.3073 4.63021,-3.30729 4.63021,-11.465288 z"
         id="text2"
         style="font-weight:bold;font-size:112.889px;line-height:1.25;font-family:'Charis SIL';-inkscape-font-specification:'Charis SIL, Bold';fill:#1040a0;stroke-width:0.264583"
         aria-label="B" />
    </g>
  </g>
</svg>
