<?xml version='1.0' encoding='utf-8'?>
<svg xmlns:xlink="http://www.w3.org/1999/xlink" xmlns="http://www.w3.org/2000/svg" version="1.1" baseProfile="full" width="600" height="600">
  <title>VFPt_charged-wires_dipole</title>
  <desc>VFPt_charged-wires_dipole
created with VectorFieldPlot 3.1
https://commons.wikimedia.org/wiki/User:Geek3/VectorFieldPlot

about: https://commons.wikimedia.org/wiki/File:VFPt_charged-wires_dipole.svg
rights: Creative Commons Attribution ShareAlike 4.0
  </desc>
  <defs>
    <clipPath id="image_clip">
      <rect x="-3.0" y="-3.0" width="6.0" height="6.0"/>
    </clipPath>
    <linearGradient id="white_gradient" x1="0.2" x2="0.8" y1="1.1" y2="-0.1">
      <stop stop-color="#ffffff" offset="0" stop-opacity="0.5"/>
      <stop stop-color="#ffffff" offset="0.3" stop-opacity="0.1"/>
      <stop stop-color="#ffffff" offset="0.4" stop-opacity="0.3"/>
      <stop stop-color="#ffffff" offset="0.6" stop-opacity="0.0"/>
      <stop stop-color="#ffffff" offset="1.0" stop-opacity="0.6"/>
    </linearGradient>
    <path id="arrow1" stroke="none" fill="#000000" transform="scale(0.01)" d="M 0.3,0 L -2.2,2.25 L 3.8,0 L -2.2,-2.25 L 0.3,0 Z"/>
  </defs>
  <rect id="background" x="0" y="0" width="600" height="600" fill="#ffffff"/>
  <g id="image" transform="translate(300.0,300.0) scale(100.0,-100.0)" clip-path="url(#image_clip)">
    <g id="fieldlines" fill="none" stroke="#000000" stroke-width="0.02" stroke-linejoin="round" stroke-linecap="round">
      <g id="fieldline1">
        <path d="M 1.3000,0.0000 L 1.3876,0.0180 L 1.4763,0.0376 L 1.5647,0.0583 L 1.6528,0.0802 L 1.7406,0.1033 L 1.8281,0.1276 L 1.9153,0.1531 L 2.0020,0.1798 L 2.0885,0.2077 L 2.1745,0.2367 L 2.2601,0.2670 L 2.3453,0.2983 L 2.4301,0.3309 L 2.5144,0.3646 L 2.5983,0.3994 L 2.6816,0.4354 L 2.7645,0.4725 L 2.8469,0.5107 L 2.9287,0.5501 L 3.0100,0.5905 M -3.0100,0.5905 L -2.9287,0.5501 L -2.8469,0.5107 L -2.7645,0.4725 L -2.6816,0.4354 L -2.5982,0.3994 L -2.5144,0.3645 L -2.4300,0.3309 L -2.3453,0.2983 L -2.2601,0.2669 L -2.1744,0.2367 L -2.0884,0.2077 L -2.0020,0.1798 L -1.9152,0.1531 L -1.8280,0.1276 L -1.7405,0.1033 L -1.6527,0.0802 L -1.5646,0.0582 L -1.4761,0.0375 L -1.3875,0.0180 L -1.3000,0.0000"/>
        <g id="arrows1">
          <use xlink:href="#arrow1" transform="translate(2.4937,0.3564) rotate(22.17) scale(2.4)"/>
          <use xlink:href="#arrow1" transform="translate(-2.4937,0.3563) rotate(-21.78) scale(2.4)"/>
        </g>
      </g>
      <g id="fieldline2">
        <path d="M 1.3000,0.0000 L 1.3439,0.0301 L 1.3878,0.0616 L 1.4309,0.0942 L 1.4733,0.1277 L 1.5148,0.1622 L 1.5556,0.1976 L 1.5955,0.2340 L 1.6346,0.2713 L 1.6728,0.3094 L 1.7101,0.3485 L 1.7466,0.3884 L 1.7820,0.4291 L 1.8166,0.4707 L 1.8501,0.5130 L 1.8827,0.5561 L 1.9143,0.5999 L 1.9448,0.6444 L 1.9743,0.6897 L 2.0028,0.7356 L 2.0302,0.7821 L 2.0565,0.8293 L 2.0817,0.8771 L 2.1058,0.9254 L 2.1288,0.9743 L 2.1507,1.0237 L 2.1714,1.0736 L 2.1909,1.1239 L 2.2093,1.1747 L 2.2265,1.2259 L 2.2425,1.2775 L 2.2574,1.3294 L 2.2710,1.3817 L 2.2834,1.4343 L 2.2946,1.4871 L 2.3046,1.5402 L 2.3133,1.5935 L 2.3208,1.6470 L 2.3271,1.7007 L 2.3321,1.7544 L 2.3359,1.8083 L 2.3385,1.8623 L 2.3398,1.9163 L 2.3398,1.9703 L 2.3386,2.0243 L 2.3362,2.0782 L 2.3325,2.1321 L 2.3276,2.1859 L 2.3214,2.2396 L 2.3140,2.2931 L 2.3054,2.3464 L 2.2955,2.3995 L 2.2844,2.4524 L 2.2721,2.5050 L 2.2586,2.5573 L 2.2439,2.6092 L 2.2279,2.6609 L 2.2108,2.7121 L 2.1925,2.7629 L 2.1731,2.8133 L 2.1525,2.8633 L 2.1307,2.9127 L 2.1078,2.9616 L 2.0838,3.0100 M -2.0838,3.0100 L -2.1078,2.9616 L -2.1307,2.9127 L -2.1525,2.8632 L -2.1731,2.8133 L -2.1926,2.7629 L -2.2108,2.7121 L -2.2279,2.6608 L -2.2439,2.6092 L -2.2586,2.5572 L -2.2721,2.5049 L -2.2844,2.4523 L -2.2955,2.3994 L -2.3054,2.3463 L -2.3140,2.2930 L -2.3214,2.2395 L -2.3276,2.1858 L -2.3325,2.1320 L -2.3362,2.0781 L -2.3386,2.0242 L -2.3398,1.9702 L -2.3398,1.9161 L -2.3384,1.8621 L -2.3359,1.8082 L -2.3321,1.7543 L -2.3271,1.7005 L -2.3208,1.6468 L -2.3133,1.5933 L -2.3045,1.5400 L -2.2945,1.4869 L -2.2834,1.4341 L -2.2709,1.3815 L -2.2573,1.3292 L -2.2425,1.2773 L -2.2265,1.2257 L -2.2092,1.1745 L -2.1909,1.1237 L -2.1713,1.0733 L -2.1506,1.0235 L -2.1287,0.9741 L -2.1057,0.9252 L -2.0816,0.8768 L -2.0564,0.8291 L -2.0301,0.7819 L -2.0026,0.7353 L -1.9742,0.6894 L -1.9446,0.6442 L -1.9141,0.5996 L -1.8825,0.5558 L -1.8499,0.5127 L -1.8164,0.4704 L -1.7818,0.4289 L -1.7463,0.3881 L -1.7099,0.3482 L -1.6726,0.3092 L -1.6343,0.2710 L -1.5953,0.2337 L -1.5553,0.1974 L -1.5145,0.1619 L -1.4730,0.1274 L -1.4306,0.0939 L -1.3875,0.0614 L -1.3436,0.0298 L -1.3000,0.0000"/>
        <g id="arrows2">
          <use xlink:href="#arrow1" transform="translate(1.9743,0.6904) rotate(58.06) scale(2.4)"/>
          <use xlink:href="#arrow1" transform="translate(2.3210,2.2397) rotate(97.73) scale(2.4)"/>
          <use xlink:href="#arrow1" transform="translate(-2.3210,2.2397) rotate(-96.72) scale(2.4)"/>
          <use xlink:href="#arrow1" transform="translate(-1.9743,0.6904) rotate(-57.05) scale(2.4)"/>
        </g>
      </g>
      <g id="fieldline3">
        <path d="M 1.3000,0.0000 L 1.3239,0.0369 L 1.3472,0.0751 L 1.3693,0.1140 L 1.3903,0.1535 L 1.4102,0.1935 L 1.4290,0.2342 L 1.4465,0.2753 L 1.4629,0.3169 L 1.4781,0.3590 L 1.4921,0.4015 L 1.5048,0.4444 L 1.5164,0.4876 L 1.5266,0.5311 L 1.5357,0.5750 L 1.5434,0.6190 L 1.5500,0.6633 L 1.5552,0.7077 L 1.5592,0.7523 L 1.5619,0.7969 L 1.5633,0.8416 L 1.5634,0.8864 L 1.5622,0.9311 L 1.5598,0.9758 L 1.5561,1.0203 L 1.5511,1.0648 L 1.5449,1.1091 L 1.5374,1.1532 L 1.5286,1.1971 L 1.5186,1.2407 L 1.5073,1.2840 L 1.4948,1.3269 L 1.4811,1.3695 L 1.4662,1.4117 L 1.4500,1.4534 L 1.4327,1.4946 L 1.4142,1.5354 L 1.3946,1.5756 L 1.3738,1.6152 L 1.3518,1.6542 L 1.3288,1.6925 L 1.3047,1.7302 L 1.2795,1.7672 L 1.2533,1.8034 L 1.2260,1.8389 L 1.1978,1.8736 L 1.1685,1.9074 L 1.1383,1.9404 L 1.1072,1.9726 L 1.0752,2.0038 L 1.0422,2.0341 L 1.0085,2.0634 L 0.9739,2.0918 L 0.9385,2.1191 L 0.9023,2.1455 L 0.8654,2.1708 L 0.8278,2.1950 L 0.7895,2.2181 L 0.7506,2.2402 L 0.7110,2.2611 L 0.6709,2.2809 L 0.6302,2.2995 L 0.5890,2.3169 L 0.5474,2.3332 L 0.5052,2.3482 L 0.4627,2.3621 L 0.4198,2.3747 L 0.3765,2.3861 L 0.3330,2.3963 L 0.2891,2.4052 L 0.2450,2.4128 L 0.2008,2.4192 L 0.1563,2.4243 L 0.1117,2.4281 L 0.0671,2.4307 L 0.0224,2.4320 L -0.0224,2.4320 L -0.0671,2.4307 L -0.1117,2.4281 L -0.1563,2.4243 L -0.2008,2.4192 L -0.2450,2.4128 L -0.2891,2.4052 L -0.3330,2.3963 L -0.3765,2.3861 L -0.4198,2.3747 L -0.4627,2.3621 L -0.5053,2.3482 L -0.5474,2.3332 L -0.5891,2.3169 L -0.6303,2.2995 L -0.6709,2.2809 L -0.7111,2.2611 L -0.7506,2.2402 L -0.7895,2.2181 L -0.8278,2.1950 L -0.8654,2.1708 L -0.9023,2.1455 L -0.9385,2.1191 L -0.9739,2.0918 L -1.0085,2.0634 L -1.0422,2.0341 L -1.0752,2.0038 L -1.1072,1.9725 L -1.1383,1.9404 L -1.1685,1.9074 L -1.1978,1.8736 L -1.2260,1.8389 L -1.2533,1.8034 L -1.2795,1.7672 L -1.3047,1.7302 L -1.3288,1.6925 L -1.3518,1.6542 L -1.3738,1.6152 L -1.3946,1.5755 L -1.4142,1.5354 L -1.4327,1.4946 L -1.4500,1.4534 L -1.4662,1.4117 L -1.4811,1.3695 L -1.4948,1.3269 L -1.5073,1.2840 L -1.5186,1.2407 L -1.5286,1.1971 L -1.5374,1.1532 L -1.5449,1.1091 L -1.5511,1.0648 L -1.5561,1.0203 L -1.5598,0.9758 L -1.5622,0.9311 L -1.5634,0.8864 L -1.5633,0.8416 L -1.5619,0.7969 L -1.5592,0.7523 L -1.5552,0.7077 L -1.5500,0.6633 L -1.5434,0.6190 L -1.5357,0.5750 L -1.5266,0.5311 L -1.5164,0.4876 L -1.5048,0.4444 L -1.4921,0.4015 L -1.4781,0.3590 L -1.4629,0.3169 L -1.4465,0.2753 L -1.4290,0.2341 L -1.4102,0.1935 L -1.3903,0.1535 L -1.3693,0.1140 L -1.3472,0.0751 L -1.3239,0.0369 L -1.3000,0.0000"/>
        <g id="arrows3">
          <use xlink:href="#arrow1" transform="translate(1.3388,1.6753) rotate(121.84) scale(2.4)"/>
          <use xlink:href="#arrow1" transform="translate(0.0000,2.4317) rotate(-179.19) scale(2.4)"/>
          <use xlink:href="#arrow1" transform="translate(-1.3388,1.6753) rotate(-120.23) scale(2.4)"/>
        </g>
      </g>
      <g id="fieldline4">
        <path d="M 1.3000,0.0000 L 1.3073,0.0396 L 1.3134,0.0803 L 1.3183,0.1211 L 1.3219,0.1620 L 1.3243,0.2031 L 1.3254,0.2442 L 1.3252,0.2853 L 1.3237,0.3264 L 1.3210,0.3674 L 1.3170,0.4083 L 1.3117,0.4491 L 1.3052,0.4897 L 1.2974,0.5300 L 1.2883,0.5701 L 1.2781,0.6099 L 1.2665,0.6494 L 1.2538,0.6885 L 1.2399,0.7272 L 1.2248,0.7654 L 1.2084,0.8031 L 1.1910,0.8403 L 1.1724,0.8770 L 1.1526,0.9131 L 1.1318,0.9485 L 1.1098,0.9833 L 1.0868,1.0173 L 1.0628,1.0507 L 1.0377,1.0832 L 1.0116,1.1150 L 0.9846,1.1460 L 0.9566,1.1761 L 0.9277,1.2053 L 0.8979,1.2336 L 0.8672,1.2610 L 0.8357,1.2874 L 0.8034,1.3128 L 0.7703,1.3372 L 0.7365,1.3606 L 0.7019,1.3829 L 0.6667,1.4042 L 0.6309,1.4243 L 0.5944,1.4433 L 0.5574,1.4612 L 0.5199,1.4779 L 0.4818,1.4934 L 0.4433,1.5077 L 0.4043,1.5209 L 0.3650,1.5328 L 0.3253,1.5435 L 0.2853,1.5530 L 0.2450,1.5612 L 0.2045,1.5682 L 0.1638,1.5739 L 0.1229,1.5783 L 0.0819,1.5815 L 0.0408,1.5834 L -0.0003,1.5841 L -0.0414,1.5834 L -0.0824,1.5815 L -0.1234,1.5783 L -0.1643,1.5738 L -0.2050,1.5681 L -0.2455,1.5611 L -0.2858,1.5529 L -0.3258,1.5434 L -0.3655,1.5327 L -0.4048,1.5207 L -0.4438,1.5076 L -0.4823,1.4932 L -0.5203,1.4776 L -0.5579,1.4609 L -0.5949,1.4430 L -0.6314,1.4240 L -0.6672,1.4039 L -0.7024,1.3826 L -0.7369,1.3603 L -0.7707,1.3369 L -0.8038,1.3125 L -0.8361,1.2871 L -0.8676,1.2607 L -0.8983,1.2333 L -0.9280,1.2049 L -0.9569,1.1757 L -0.9849,1.1456 L -1.0120,1.1146 L -1.0380,1.0828 L -1.0631,1.0502 L -1.0871,1.0169 L -1.1101,0.9828 L -1.1320,0.9480 L -1.1529,0.9126 L -1.1726,0.8765 L -1.1912,0.8399 L -1.2087,0.8026 L -1.2250,0.7649 L -1.2401,0.7267 L -1.2540,0.6880 L -1.2667,0.6489 L -1.2782,0.6094 L -1.2885,0.5696 L -1.2975,0.5295 L -1.3053,0.4891 L -1.3118,0.4485 L -1.3170,0.4078 L -1.3210,0.3669 L -1.3238,0.3258 L -1.3252,0.2847 L -1.3254,0.2436 L -1.3243,0.2025 L -1.3219,0.1615 L -1.3183,0.1206 L -1.3133,0.0797 L -1.3072,0.0391 L -1.3000,0.0000"/>
        <g id="arrows4">
          <use xlink:href="#arrow1" transform="translate(1.1834,0.8543) rotate(117.64) scale(2.4)"/>
          <use xlink:href="#arrow1" transform="translate(0.0000,1.5834) rotate(-179.05) scale(2.4)"/>
          <use xlink:href="#arrow1" transform="translate(-1.1834,0.8543) rotate(-115.75) scale(2.4)"/>
        </g>
      </g>
      <g id="fieldline5">
        <path d="M 1.3000,-0.0000 L 1.2916,0.0392 L 1.2818,0.0790 L 1.2707,0.1185 L 1.2585,0.1575 L 1.2450,0.1962 L 1.2303,0.2345 L 1.2145,0.2723 L 1.1975,0.3096 L 1.1794,0.3463 L 1.1601,0.3824 L 1.1398,0.4180 L 1.1183,0.4529 L 1.0958,0.4871 L 1.0722,0.5206 L 1.0477,0.5534 L 1.0221,0.5854 L 0.9955,0.6165 L 0.9680,0.6469 L 0.9395,0.6764 L 0.9102,0.7050 L 0.8800,0.7326 L 0.8489,0.7593 L 0.8171,0.7851 L 0.7844,0.8098 L 0.7510,0.8336 L 0.7169,0.8563 L 0.6821,0.8779 L 0.6467,0.8984 L 0.6106,0.9178 L 0.5740,0.9362 L 0.5368,0.9533 L 0.4991,0.9693 L 0.4609,0.9842 L 0.4223,0.9978 L 0.3833,1.0103 L 0.3439,1.0215 L 0.3042,1.0315 L 0.2641,1.0403 L 0.2239,1.0478 L 0.1834,1.0541 L 0.1427,1.0592 L 0.1020,1.0630 L 0.0611,1.0655 L 0.0201,1.0667 L -0.0208,1.0667 L -0.0618,1.0654 L -0.1027,1.0629 L -0.1434,1.0591 L -0.1841,1.0540 L -0.2246,1.0477 L -0.2648,1.0402 L -0.3048,1.0314 L -0.3446,1.0213 L -0.3839,1.0101 L -0.4230,0.9976 L -0.4616,0.9839 L -0.4997,0.9691 L -0.5374,0.9530 L -0.5746,0.9358 L -0.6113,0.9175 L -0.6473,0.8981 L -0.6827,0.8775 L -0.7175,0.8559 L -0.7516,0.8332 L -0.7850,0.8094 L -0.8176,0.7847 L -0.8495,0.7589 L -0.8805,0.7322 L -0.9107,0.7045 L -0.9400,0.6759 L -0.9685,0.6464 L -0.9960,0.6160 L -1.0225,0.5848 L -1.0481,0.5528 L -1.0727,0.5200 L -1.0962,0.4865 L -1.1187,0.4523 L -1.1401,0.4174 L -1.1605,0.3818 L -1.1797,0.3457 L -1.1978,0.3089 L -1.2148,0.2716 L -1.2306,0.2338 L -1.2452,0.1956 L -1.2587,0.1569 L -1.2709,0.1178 L -1.2819,0.0783 L -1.2917,0.0386 L -1.3000,-0.0000"/>
        <g id="arrows5">
          <use xlink:href="#arrow1" transform="translate(0.0000,1.0664) rotate(-179.03) scale(2.4)"/>
        </g>
      </g>
      <g id="fieldline6">
        <path d="M 1.3000,-0.0000 L 1.2752,0.0360 L 1.2490,0.0719 L 1.2217,0.1071 L 1.1934,0.1415 L 1.1642,0.1750 L 1.1340,0.2078 L 1.1029,0.2396 L 1.0709,0.2706 L 1.0380,0.3006 L 1.0043,0.3297 L 0.9697,0.3578 L 0.9344,0.3849 L 0.8984,0.4110 L 0.8616,0.4361 L 0.8241,0.4601 L 0.7859,0.4830 L 0.7471,0.5048 L 0.7077,0.5255 L 0.6677,0.5451 L 0.6272,0.5636 L 0.5861,0.5808 L 0.5446,0.5969 L 0.5027,0.6119 L 0.4603,0.6256 L 0.4176,0.6381 L 0.3745,0.6493 L 0.3311,0.6594 L 0.2875,0.6682 L 0.2436,0.6758 L 0.1996,0.6821 L 0.1553,0.6871 L 0.1110,0.6909 L 0.0665,0.6935 L 0.0220,0.6947 L -0.0225,0.6947 L -0.0670,0.6934 L -0.1115,0.6909 L -0.1558,0.6871 L -0.2001,0.6820 L -0.2441,0.6757 L -0.2880,0.6681 L -0.3317,0.6593 L -0.3750,0.6492 L -0.4181,0.6379 L -0.4608,0.6254 L -0.5032,0.6117 L -0.5451,0.5968 L -0.5866,0.5806 L -0.6276,0.5634 L -0.6682,0.5449 L -0.7081,0.5253 L -0.7475,0.5046 L -0.7863,0.4827 L -0.8245,0.4598 L -0.8620,0.4358 L -0.8988,0.4107 L -0.9348,0.3846 L -0.9701,0.3575 L -1.0047,0.3294 L -1.0384,0.3003 L -1.0712,0.2702 L -1.1032,0.2393 L -1.1343,0.2074 L -1.1645,0.1747 L -1.1937,0.1411 L -1.2220,0.1067 L -1.2493,0.0715 L -1.2755,0.0355 L -1.3000,-0.0000"/>
        <g id="arrows6">
          <use xlink:href="#arrow1" transform="translate(0.6745,0.5412) rotate(155.22) scale(2.4)"/>
          <use xlink:href="#arrow1" transform="translate(-0.6745,0.5413) rotate(-153.61) scale(2.4)"/>
        </g>
      </g>
      <g id="fieldline7">
        <path d="M 1.3000,-0.0000 L 1.2559,0.0288 L 1.2099,0.0573 L 1.1633,0.0847 L 1.1160,0.1111 L 1.0682,0.1363 L 1.0198,0.1605 L 0.9708,0.1835 L 0.9213,0.2053 L 0.8713,0.2261 L 0.8209,0.2456 L 0.7700,0.2640 L 0.7187,0.2812 L 0.6670,0.2973 L 0.6150,0.3121 L 0.5626,0.3257 L 0.5099,0.3381 L 0.4570,0.3493 L 0.4038,0.3592 L 0.3504,0.3680 L 0.2968,0.3754 L 0.2431,0.3817 L 0.1892,0.3867 L 0.1352,0.3904 L 0.0812,0.3929 L 0.0271,0.3942 L -0.0270,0.3942 L -0.0811,0.3929 L -0.1352,0.3904 L -0.1892,0.3867 L -0.2430,0.3817 L -0.2968,0.3755 L -0.3504,0.3680 L -0.4038,0.3593 L -0.4569,0.3493 L -0.5099,0.3381 L -0.5626,0.3257 L -0.6149,0.3121 L -0.6670,0.2973 L -0.7186,0.2813 L -0.7699,0.2641 L -0.8208,0.2457 L -0.8713,0.2261 L -0.9213,0.2054 L -0.9707,0.1835 L -1.0197,0.1605 L -1.0681,0.1363 L -1.1160,0.1111 L -1.1632,0.0847 L -1.2099,0.0573 L -1.2559,0.0288 L -1.3000,-0.0000"/>
        <g id="arrows7">
          <use xlink:href="#arrow1" transform="translate(0.0000,0.3940) rotate(-179.42) scale(2.4)"/>
        </g>
      </g>
      <g id="fieldline8">
        <path d="M 1.3000,-0.0000 L 1.2123,0.0168 L 1.1234,0.0327 L 1.0343,0.0473 L 0.9450,0.0607 L 0.8555,0.0729 L 0.7659,0.0839 L 0.6761,0.0937 L 0.5862,0.1022 L 0.4962,0.1095 L 0.4061,0.1157 L 0.3159,0.1205 L 0.2257,0.1242 L 0.1354,0.1267 L 0.0451,0.1279 L -0.0452,0.1279 L -0.1355,0.1267 L -0.2258,0.1242 L -0.3160,0.1205 L -0.4062,0.1156 L -0.4963,0.1095 L -0.5863,0.1022 L -0.6762,0.0936 L -0.7660,0.0839 L -0.8556,0.0729 L -0.9451,0.0607 L -1.0344,0.0473 L -1.1235,0.0326 L -1.2124,0.0168 L -1.3000,-0.0000"/>
        <g id="arrows8">
          <use xlink:href="#arrow1" transform="translate(0.5939,0.1013) rotate(175.08) scale(2.4)"/>
          <use xlink:href="#arrow1" transform="translate(-0.5939,0.1013) rotate(-174.68) scale(2.4)"/>
        </g>
      </g>
      <g id="fieldline9">
        <path d="M 1.3000,0.0000 L 1.2123,-0.0168 L 1.1234,-0.0327 L 1.0343,-0.0473 L 0.9450,-0.0607 L 0.8555,-0.0729 L 0.7659,-0.0839 L 0.6761,-0.0937 L 0.5862,-0.1022 L 0.4962,-0.1095 L 0.4061,-0.1157 L 0.3159,-0.1205 L 0.2257,-0.1242 L 0.1354,-0.1267 L 0.0451,-0.1279 L -0.0452,-0.1279 L -0.1355,-0.1267 L -0.2258,-0.1242 L -0.3160,-0.1205 L -0.4062,-0.1156 L -0.4963,-0.1095 L -0.5863,-0.1022 L -0.6762,-0.0936 L -0.7660,-0.0839 L -0.8556,-0.0729 L -0.9451,-0.0607 L -1.0344,-0.0473 L -1.1235,-0.0326 L -1.2124,-0.0168 L -1.3000,0.0000"/>
        <g id="arrows9">
          <use xlink:href="#arrow1" transform="translate(0.5939,-0.1013) rotate(-175.08) scale(2.4)"/>
          <use xlink:href="#arrow1" transform="translate(-0.5939,-0.1013) rotate(174.68) scale(2.4)"/>
        </g>
      </g>
      <g id="fieldline10">
        <path d="M 1.3000,0.0000 L 1.2559,-0.0288 L 1.2099,-0.0573 L 1.1633,-0.0847 L 1.1160,-0.1111 L 1.0682,-0.1363 L 1.0198,-0.1605 L 0.9708,-0.1835 L 0.9213,-0.2053 L 0.8713,-0.2261 L 0.8209,-0.2456 L 0.7700,-0.2640 L 0.7187,-0.2812 L 0.6670,-0.2973 L 0.6150,-0.3121 L 0.5626,-0.3257 L 0.5099,-0.3381 L 0.4570,-0.3493 L 0.4038,-0.3592 L 0.3504,-0.3680 L 0.2968,-0.3754 L 0.2431,-0.3817 L 0.1892,-0.3867 L 0.1352,-0.3904 L 0.0812,-0.3929 L 0.0271,-0.3942 L -0.0270,-0.3942 L -0.0811,-0.3929 L -0.1352,-0.3904 L -0.1892,-0.3867 L -0.2430,-0.3817 L -0.2968,-0.3755 L -0.3504,-0.3680 L -0.4038,-0.3593 L -0.4569,-0.3493 L -0.5099,-0.3381 L -0.5626,-0.3257 L -0.6149,-0.3121 L -0.6670,-0.2973 L -0.7186,-0.2813 L -0.7699,-0.2641 L -0.8208,-0.2457 L -0.8713,-0.2261 L -0.9213,-0.2054 L -0.9707,-0.1835 L -1.0197,-0.1605 L -1.0681,-0.1363 L -1.1160,-0.1111 L -1.1632,-0.0847 L -1.2099,-0.0573 L -1.2559,-0.0288 L -1.3000,0.0000"/>
        <g id="arrows10">
          <use xlink:href="#arrow1" transform="translate(0.0000,-0.3940) rotate(179.42) scale(2.4)"/>
        </g>
      </g>
      <g id="fieldline11">
        <path d="M 1.3000,0.0000 L 1.2752,-0.0360 L 1.2490,-0.0719 L 1.2217,-0.1071 L 1.1934,-0.1415 L 1.1642,-0.1750 L 1.1340,-0.2078 L 1.1029,-0.2396 L 1.0709,-0.2706 L 1.0380,-0.3006 L 1.0043,-0.3297 L 0.9697,-0.3578 L 0.9344,-0.3849 L 0.8984,-0.4110 L 0.8616,-0.4361 L 0.8241,-0.4601 L 0.7859,-0.4830 L 0.7471,-0.5048 L 0.7077,-0.5255 L 0.6677,-0.5451 L 0.6272,-0.5636 L 0.5861,-0.5808 L 0.5446,-0.5969 L 0.5027,-0.6119 L 0.4603,-0.6256 L 0.4176,-0.6381 L 0.3745,-0.6493 L 0.3311,-0.6594 L 0.2875,-0.6682 L 0.2436,-0.6758 L 0.1996,-0.6821 L 0.1553,-0.6871 L 0.1110,-0.6909 L 0.0665,-0.6935 L 0.0220,-0.6947 L -0.0225,-0.6947 L -0.0670,-0.6934 L -0.1115,-0.6909 L -0.1558,-0.6871 L -0.2001,-0.6820 L -0.2441,-0.6757 L -0.2880,-0.6681 L -0.3317,-0.6593 L -0.3750,-0.6492 L -0.4181,-0.6379 L -0.4608,-0.6254 L -0.5032,-0.6117 L -0.5451,-0.5968 L -0.5866,-0.5806 L -0.6276,-0.5634 L -0.6682,-0.5449 L -0.7081,-0.5253 L -0.7475,-0.5046 L -0.7863,-0.4827 L -0.8245,-0.4598 L -0.8620,-0.4358 L -0.8988,-0.4107 L -0.9348,-0.3846 L -0.9701,-0.3575 L -1.0047,-0.3294 L -1.0384,-0.3003 L -1.0712,-0.2702 L -1.1032,-0.2393 L -1.1343,-0.2074 L -1.1645,-0.1747 L -1.1937,-0.1411 L -1.2220,-0.1067 L -1.2493,-0.0715 L -1.2755,-0.0355 L -1.3000,0.0000"/>
        <g id="arrows11">
          <use xlink:href="#arrow1" transform="translate(0.6745,-0.5412) rotate(-155.22) scale(2.4)"/>
          <use xlink:href="#arrow1" transform="translate(-0.6745,-0.5413) rotate(153.61) scale(2.4)"/>
        </g>
      </g>
      <g id="fieldline12">
        <path d="M 1.3000,0.0000 L 1.2916,-0.0392 L 1.2818,-0.0790 L 1.2707,-0.1185 L 1.2585,-0.1575 L 1.2450,-0.1962 L 1.2303,-0.2345 L 1.2145,-0.2723 L 1.1975,-0.3096 L 1.1794,-0.3463 L 1.1601,-0.3824 L 1.1398,-0.4180 L 1.1183,-0.4529 L 1.0958,-0.4871 L 1.0722,-0.5206 L 1.0477,-0.5534 L 1.0221,-0.5854 L 0.9955,-0.6165 L 0.9680,-0.6469 L 0.9395,-0.6764 L 0.9102,-0.7050 L 0.8800,-0.7326 L 0.8489,-0.7593 L 0.8171,-0.7851 L 0.7844,-0.8098 L 0.7510,-0.8336 L 0.7169,-0.8563 L 0.6821,-0.8779 L 0.6467,-0.8984 L 0.6106,-0.9178 L 0.5740,-0.9362 L 0.5368,-0.9533 L 0.4991,-0.9693 L 0.4609,-0.9842 L 0.4223,-0.9978 L 0.3833,-1.0103 L 0.3439,-1.0215 L 0.3042,-1.0315 L 0.2641,-1.0403 L 0.2239,-1.0478 L 0.1834,-1.0541 L 0.1427,-1.0592 L 0.1020,-1.0630 L 0.0611,-1.0655 L 0.0201,-1.0667 L -0.0208,-1.0667 L -0.0618,-1.0654 L -0.1027,-1.0629 L -0.1434,-1.0591 L -0.1841,-1.0540 L -0.2246,-1.0477 L -0.2648,-1.0402 L -0.3048,-1.0314 L -0.3446,-1.0213 L -0.3839,-1.0101 L -0.4230,-0.9976 L -0.4616,-0.9839 L -0.4997,-0.9691 L -0.5374,-0.9530 L -0.5746,-0.9358 L -0.6113,-0.9175 L -0.6473,-0.8981 L -0.6827,-0.8775 L -0.7175,-0.8559 L -0.7516,-0.8332 L -0.7850,-0.8094 L -0.8176,-0.7847 L -0.8495,-0.7589 L -0.8805,-0.7322 L -0.9107,-0.7045 L -0.9400,-0.6759 L -0.9685,-0.6464 L -0.9960,-0.6160 L -1.0225,-0.5848 L -1.0481,-0.5528 L -1.0727,-0.5200 L -1.0962,-0.4865 L -1.1187,-0.4523 L -1.1401,-0.4174 L -1.1605,-0.3818 L -1.1797,-0.3457 L -1.1978,-0.3089 L -1.2148,-0.2716 L -1.2306,-0.2338 L -1.2452,-0.1956 L -1.2587,-0.1569 L -1.2709,-0.1178 L -1.2819,-0.0783 L -1.2917,-0.0386 L -1.3000,0.0000"/>
        <g id="arrows12">
          <use xlink:href="#arrow1" transform="translate(0.0000,-1.0664) rotate(179.03) scale(2.4)"/>
        </g>
      </g>
      <g id="fieldline13">
        <path d="M 1.3000,-0.0000 L 1.3073,-0.0396 L 1.3134,-0.0803 L 1.3183,-0.1211 L 1.3219,-0.1620 L 1.3243,-0.2031 L 1.3254,-0.2442 L 1.3252,-0.2853 L 1.3237,-0.3264 L 1.3210,-0.3674 L 1.3170,-0.4083 L 1.3117,-0.4491 L 1.3052,-0.4897 L 1.2974,-0.5300 L 1.2883,-0.5701 L 1.2781,-0.6099 L 1.2665,-0.6494 L 1.2538,-0.6885 L 1.2399,-0.7272 L 1.2248,-0.7654 L 1.2084,-0.8031 L 1.1910,-0.8403 L 1.1724,-0.8770 L 1.1526,-0.9131 L 1.1318,-0.9485 L 1.1098,-0.9833 L 1.0868,-1.0173 L 1.0628,-1.0507 L 1.0377,-1.0832 L 1.0116,-1.1150 L 0.9846,-1.1460 L 0.9566,-1.1761 L 0.9277,-1.2053 L 0.8979,-1.2336 L 0.8672,-1.2610 L 0.8357,-1.2874 L 0.8034,-1.3128 L 0.7703,-1.3372 L 0.7365,-1.3606 L 0.7019,-1.3829 L 0.6667,-1.4042 L 0.6309,-1.4243 L 0.5944,-1.4433 L 0.5574,-1.4612 L 0.5199,-1.4779 L 0.4818,-1.4934 L 0.4433,-1.5077 L 0.4043,-1.5209 L 0.3650,-1.5328 L 0.3253,-1.5435 L 0.2853,-1.5530 L 0.2450,-1.5612 L 0.2045,-1.5682 L 0.1638,-1.5739 L 0.1229,-1.5783 L 0.0819,-1.5815 L 0.0408,-1.5834 L -0.0003,-1.5841 L -0.0414,-1.5834 L -0.0824,-1.5815 L -0.1234,-1.5783 L -0.1643,-1.5738 L -0.2050,-1.5681 L -0.2455,-1.5611 L -0.2858,-1.5529 L -0.3258,-1.5434 L -0.3655,-1.5327 L -0.4048,-1.5207 L -0.4438,-1.5076 L -0.4823,-1.4932 L -0.5203,-1.4776 L -0.5579,-1.4609 L -0.5949,-1.4430 L -0.6314,-1.4240 L -0.6672,-1.4039 L -0.7024,-1.3826 L -0.7369,-1.3603 L -0.7707,-1.3369 L -0.8038,-1.3125 L -0.8361,-1.2871 L -0.8676,-1.2607 L -0.8983,-1.2333 L -0.9280,-1.2049 L -0.9569,-1.1757 L -0.9849,-1.1456 L -1.0120,-1.1146 L -1.0380,-1.0828 L -1.0631,-1.0502 L -1.0871,-1.0169 L -1.1101,-0.9828 L -1.1320,-0.9480 L -1.1529,-0.9126 L -1.1726,-0.8765 L -1.1912,-0.8399 L -1.2087,-0.8026 L -1.2250,-0.7649 L -1.2401,-0.7267 L -1.2540,-0.6880 L -1.2667,-0.6489 L -1.2782,-0.6094 L -1.2885,-0.5696 L -1.2975,-0.5295 L -1.3053,-0.4891 L -1.3118,-0.4485 L -1.3170,-0.4078 L -1.3210,-0.3669 L -1.3238,-0.3258 L -1.3252,-0.2847 L -1.3254,-0.2436 L -1.3243,-0.2025 L -1.3219,-0.1615 L -1.3183,-0.1206 L -1.3133,-0.0797 L -1.3072,-0.0391 L -1.3000,-0.0000"/>
        <g id="arrows13">
          <use xlink:href="#arrow1" transform="translate(1.1834,-0.8543) rotate(-117.64) scale(2.4)"/>
          <use xlink:href="#arrow1" transform="translate(0.0000,-1.5834) rotate(179.05) scale(2.4)"/>
          <use xlink:href="#arrow1" transform="translate(-1.1834,-0.8543) rotate(115.75) scale(2.4)"/>
        </g>
      </g>
      <g id="fieldline14">
        <path d="M 1.3000,-0.0000 L 1.3239,-0.0369 L 1.3472,-0.0751 L 1.3693,-0.1140 L 1.3903,-0.1535 L 1.4102,-0.1935 L 1.4290,-0.2342 L 1.4465,-0.2753 L 1.4629,-0.3169 L 1.4781,-0.3590 L 1.4921,-0.4015 L 1.5048,-0.4444 L 1.5164,-0.4876 L 1.5266,-0.5311 L 1.5357,-0.5750 L 1.5434,-0.6190 L 1.5500,-0.6633 L 1.5552,-0.7077 L 1.5592,-0.7523 L 1.5619,-0.7969 L 1.5633,-0.8416 L 1.5634,-0.8864 L 1.5622,-0.9311 L 1.5598,-0.9758 L 1.5561,-1.0203 L 1.5511,-1.0648 L 1.5449,-1.1091 L 1.5374,-1.1532 L 1.5286,-1.1971 L 1.5186,-1.2407 L 1.5073,-1.2840 L 1.4948,-1.3269 L 1.4811,-1.3695 L 1.4662,-1.4117 L 1.4500,-1.4534 L 1.4327,-1.4946 L 1.4142,-1.5354 L 1.3946,-1.5756 L 1.3738,-1.6152 L 1.3518,-1.6542 L 1.3288,-1.6925 L 1.3047,-1.7302 L 1.2795,-1.7672 L 1.2533,-1.8034 L 1.2260,-1.8389 L 1.1978,-1.8736 L 1.1685,-1.9074 L 1.1383,-1.9404 L 1.1072,-1.9726 L 1.0752,-2.0038 L 1.0422,-2.0341 L 1.0085,-2.0634 L 0.9739,-2.0918 L 0.9385,-2.1191 L 0.9023,-2.1455 L 0.8654,-2.1708 L 0.8278,-2.1950 L 0.7895,-2.2181 L 0.7506,-2.2402 L 0.7110,-2.2611 L 0.6709,-2.2809 L 0.6302,-2.2995 L 0.5890,-2.3169 L 0.5474,-2.3332 L 0.5052,-2.3482 L 0.4627,-2.3621 L 0.4198,-2.3747 L 0.3765,-2.3861 L 0.3330,-2.3963 L 0.2891,-2.4052 L 0.2450,-2.4128 L 0.2008,-2.4192 L 0.1563,-2.4243 L 0.1117,-2.4281 L 0.0671,-2.4307 L 0.0224,-2.4320 L -0.0224,-2.4320 L -0.0671,-2.4307 L -0.1117,-2.4281 L -0.1563,-2.4243 L -0.2008,-2.4192 L -0.2450,-2.4128 L -0.2891,-2.4052 L -0.3330,-2.3963 L -0.3765,-2.3861 L -0.4198,-2.3747 L -0.4627,-2.3621 L -0.5053,-2.3482 L -0.5474,-2.3332 L -0.5891,-2.3169 L -0.6303,-2.2995 L -0.6709,-2.2809 L -0.7111,-2.2611 L -0.7506,-2.2402 L -0.7895,-2.2181 L -0.8278,-2.1950 L -0.8654,-2.1708 L -0.9023,-2.1455 L -0.9385,-2.1191 L -0.9739,-2.0918 L -1.0085,-2.0634 L -1.0422,-2.0341 L -1.0752,-2.0038 L -1.1072,-1.9725 L -1.1383,-1.9404 L -1.1685,-1.9074 L -1.1978,-1.8736 L -1.2260,-1.8389 L -1.2533,-1.8034 L -1.2795,-1.7672 L -1.3047,-1.7302 L -1.3288,-1.6925 L -1.3518,-1.6542 L -1.3738,-1.6152 L -1.3946,-1.5755 L -1.4142,-1.5354 L -1.4327,-1.4946 L -1.4500,-1.4534 L -1.4662,-1.4117 L -1.4811,-1.3695 L -1.4948,-1.3269 L -1.5073,-1.2840 L -1.5186,-1.2407 L -1.5286,-1.1971 L -1.5374,-1.1532 L -1.5449,-1.1091 L -1.5511,-1.0648 L -1.5561,-1.0203 L -1.5598,-0.9758 L -1.5622,-0.9311 L -1.5634,-0.8864 L -1.5633,-0.8416 L -1.5619,-0.7969 L -1.5592,-0.7523 L -1.5552,-0.7077 L -1.5500,-0.6633 L -1.5434,-0.6190 L -1.5357,-0.5750 L -1.5266,-0.5311 L -1.5164,-0.4876 L -1.5048,-0.4444 L -1.4921,-0.4015 L -1.4781,-0.3590 L -1.4629,-0.3169 L -1.4465,-0.2753 L -1.4290,-0.2341 L -1.4102,-0.1935 L -1.3903,-0.1535 L -1.3693,-0.1140 L -1.3472,-0.0751 L -1.3239,-0.0369 L -1.3000,-0.0000"/>
        <g id="arrows14">
          <use xlink:href="#arrow1" transform="translate(1.3388,-1.6753) rotate(-121.84) scale(2.4)"/>
          <use xlink:href="#arrow1" transform="translate(0.0000,-2.4317) rotate(179.19) scale(2.4)"/>
          <use xlink:href="#arrow1" transform="translate(-1.3388,-1.6753) rotate(120.23) scale(2.4)"/>
        </g>
      </g>
      <g id="fieldline15">
        <path d="M 1.3000,-0.0000 L 1.3439,-0.0301 L 1.3878,-0.0616 L 1.4309,-0.0942 L 1.4733,-0.1277 L 1.5148,-0.1622 L 1.5556,-0.1976 L 1.5955,-0.2340 L 1.6346,-0.2713 L 1.6728,-0.3094 L 1.7101,-0.3485 L 1.7466,-0.3884 L 1.7820,-0.4291 L 1.8166,-0.4707 L 1.8501,-0.5130 L 1.8827,-0.5561 L 1.9143,-0.5999 L 1.9448,-0.6444 L 1.9743,-0.6897 L 2.0028,-0.7356 L 2.0302,-0.7821 L 2.0565,-0.8293 L 2.0817,-0.8771 L 2.1058,-0.9254 L 2.1288,-0.9743 L 2.1507,-1.0237 L 2.1714,-1.0736 L 2.1909,-1.1239 L 2.2093,-1.1747 L 2.2265,-1.2259 L 2.2425,-1.2775 L 2.2574,-1.3294 L 2.2710,-1.3817 L 2.2834,-1.4343 L 2.2946,-1.4871 L 2.3046,-1.5402 L 2.3133,-1.5935 L 2.3208,-1.6470 L 2.3271,-1.7007 L 2.3321,-1.7544 L 2.3359,-1.8083 L 2.3385,-1.8623 L 2.3398,-1.9163 L 2.3398,-1.9703 L 2.3386,-2.0243 L 2.3362,-2.0782 L 2.3325,-2.1321 L 2.3276,-2.1859 L 2.3214,-2.2396 L 2.3140,-2.2931 L 2.3054,-2.3464 L 2.2955,-2.3995 L 2.2844,-2.4524 L 2.2721,-2.5050 L 2.2586,-2.5573 L 2.2439,-2.6092 L 2.2279,-2.6609 L 2.2108,-2.7121 L 2.1925,-2.7629 L 2.1731,-2.8133 L 2.1525,-2.8633 L 2.1307,-2.9127 L 2.1078,-2.9616 L 2.0838,-3.0100 M -2.0838,-3.0100 L -2.1078,-2.9616 L -2.1307,-2.9127 L -2.1525,-2.8632 L -2.1731,-2.8133 L -2.1926,-2.7629 L -2.2108,-2.7121 L -2.2279,-2.6608 L -2.2439,-2.6092 L -2.2586,-2.5572 L -2.2721,-2.5049 L -2.2844,-2.4523 L -2.2955,-2.3994 L -2.3054,-2.3463 L -2.3140,-2.2930 L -2.3214,-2.2395 L -2.3276,-2.1858 L -2.3325,-2.1320 L -2.3362,-2.0781 L -2.3386,-2.0242 L -2.3398,-1.9702 L -2.3398,-1.9161 L -2.3384,-1.8621 L -2.3359,-1.8082 L -2.3321,-1.7543 L -2.3271,-1.7005 L -2.3208,-1.6468 L -2.3133,-1.5933 L -2.3045,-1.5400 L -2.2945,-1.4869 L -2.2834,-1.4341 L -2.2709,-1.3815 L -2.2573,-1.3292 L -2.2425,-1.2773 L -2.2265,-1.2257 L -2.2092,-1.1745 L -2.1909,-1.1237 L -2.1713,-1.0733 L -2.1506,-1.0235 L -2.1287,-0.9741 L -2.1057,-0.9252 L -2.0816,-0.8768 L -2.0564,-0.8291 L -2.0301,-0.7819 L -2.0026,-0.7353 L -1.9742,-0.6894 L -1.9446,-0.6442 L -1.9141,-0.5996 L -1.8825,-0.5558 L -1.8499,-0.5127 L -1.8164,-0.4704 L -1.7818,-0.4289 L -1.7463,-0.3881 L -1.7099,-0.3482 L -1.6726,-0.3092 L -1.6343,-0.2710 L -1.5953,-0.2337 L -1.5553,-0.1974 L -1.5145,-0.1619 L -1.4730,-0.1274 L -1.4306,-0.0939 L -1.3875,-0.0614 L -1.3436,-0.0298 L -1.3000,-0.0000"/>
        <g id="arrows15">
          <use xlink:href="#arrow1" transform="translate(1.9743,-0.6904) rotate(-58.06) scale(2.4)"/>
          <use xlink:href="#arrow1" transform="translate(2.3210,-2.2397) rotate(-97.73) scale(2.4)"/>
          <use xlink:href="#arrow1" transform="translate(-2.3210,-2.2397) rotate(96.72) scale(2.4)"/>
          <use xlink:href="#arrow1" transform="translate(-1.9743,-0.6904) rotate(57.05) scale(2.4)"/>
        </g>
      </g>
      <g id="fieldline16">
        <path d="M 1.3000,-0.0000 L 1.3876,-0.0180 L 1.4763,-0.0376 L 1.5647,-0.0583 L 1.6528,-0.0802 L 1.7406,-0.1033 L 1.8281,-0.1276 L 1.9153,-0.1531 L 2.0020,-0.1798 L 2.0885,-0.2077 L 2.1745,-0.2367 L 2.2601,-0.2670 L 2.3453,-0.2983 L 2.4301,-0.3309 L 2.5144,-0.3646 L 2.5983,-0.3994 L 2.6816,-0.4354 L 2.7645,-0.4725 L 2.8469,-0.5107 L 2.9287,-0.5501 L 3.0100,-0.5905 M -3.0100,-0.5905 L -2.9287,-0.5501 L -2.8469,-0.5107 L -2.7645,-0.4725 L -2.6816,-0.4354 L -2.5982,-0.3994 L -2.5144,-0.3645 L -2.4300,-0.3309 L -2.3453,-0.2983 L -2.2601,-0.2669 L -2.1744,-0.2367 L -2.0884,-0.2077 L -2.0020,-0.1798 L -1.9152,-0.1531 L -1.8280,-0.1276 L -1.7405,-0.1033 L -1.6527,-0.0802 L -1.5646,-0.0582 L -1.4761,-0.0375 L -1.3875,-0.0180 L -1.3000,-0.0000"/>
        <g id="arrows16">
          <use xlink:href="#arrow1" transform="translate(2.4937,-0.3564) rotate(-22.17) scale(2.4)"/>
          <use xlink:href="#arrow1" transform="translate(-2.4937,-0.3563) rotate(21.78) scale(2.4)"/>
        </g>
      </g>
    </g>
    <g id="symbols">
      <g id="wire1" transform="translate(1.3,0.0) scale(0.02,0.02)">
        <circle cx="0" cy="0" r="14" style="fill:#ff0000; stroke:none"/>
        <circle cx="0" cy="0" r="14" style="fill:url(#white_gradient); stroke:#000000; stroke-width:2"/>
        <path d="M 2,2 V 8 H -2 V 2 H -8 V -2 H -2 V -8 H 2 V -2 H 8 V 2 H 2 Z" style="fill:#000000; stroke:none"/>
      </g>
      <g id="wire2" transform="translate(-1.3,1.5920408388915593e-16) scale(0.02,0.02)">
        <circle cx="0" cy="0" r="14" style="fill:#3350ff; stroke:none"/>
        <circle cx="0" cy="0" r="14" style="fill:url(#white_gradient); stroke:#000000; stroke-width:2"/>
        <path d="M 8,2 H -8 V -2 H 8 V 2 Z" style="fill:#000000; stroke:none"/>
      </g>
    </g>
  </g>
</svg>
