<?xml version="1.0" encoding="UTF-8" standalone="no"?>
<svg
   width="600"
   height="600"
   viewBox="0 0 600 599.99999"
   fill="none"
   version="1.1"
   id="svg7"
   sodipodi:docname="nebula.svg"
   inkscape:version="1.4.3 (0d15f75042, 2025-12-25)"
   xmlns:inkscape="http://www.inkscape.org/namespaces/inkscape"
   xmlns:sodipodi="http://sodipodi.sourceforge.net/DTD/sodipodi-0.dtd"
   xmlns="http://www.w3.org/2000/svg"
   xmlns:svg="http://www.w3.org/2000/svg">
  <defs
     id="defs7" />
  <sodipodi:namedview
     id="namedview7"
     pagecolor="#ffffff"
     bordercolor="#666666"
     borderopacity="1.0"
     inkscape:showpageshadow="2"
     inkscape:pageopacity="0.0"
     inkscape:pagecheckerboard="0"
     inkscape:deskcolor="#d1d1d1"
     inkscape:zoom="0.66550678"
     inkscape:cx="5.25915"
     inkscape:cy="392.18233"
     inkscape:window-width="1920"
     inkscape:window-height="1014"
     inkscape:window-x="0"
     inkscape:window-y="0"
     inkscape:window-maximized="1"
     inkscape:current-layer="svg7"
     showgrid="false" />
  <path
     d="m 524.4555,282.83804 c -9.528,-9.528 -24.976,-9.528 -34.504,0 l -0.003,0.004 c -15.089,15.093 -1.078,24.799 -39.892,63.613 -23.68,23.68 -34.846,30.73 -46.364,30.655 -9.831,0.075 -22.685,-6.975 -46.366,-30.656 -38.816,-38.817 -24.799,-48.521 -39.895,-63.616 -0.893,-0.894 -1.854,-1.676 -2.842,-2.402 -11.962,-9.53 -23.74,-2.436 -60.055,-38.7515 -38.817,-38.8171 -25.878,-47.4429 -40.974,-62.53844 -9.528,-9.52808 -24.976,-9.52808 -34.504,0 l -0.004,0.004 c -12.932,12.93726 -2.156,23.72146 -40.97,62.53466 -38.81,38.8112 -47.44,25.8826 -62.531,40.9672 l -0.007,0.006 c -9.528,9.528 -9.528,24.977 0,34.505 9.528,9.527 24.976,9.527 34.504,0 15.096,-15.096 1.078,-24.8 39.895,-63.6174 23.681,-23.6806 36.535,-30.7304 46.365,-30.6554 11.518,-0.075 22.685,6.9751 46.365,30.6551 38.813,38.8137 24.802,48.5197 39.892,63.6127 l 0.003,0.004 c 0.77,0.77 1.59,1.455 2.432,2.101 13.891,12.06 23.461,2.047 60.466,39.052 38.813,38.814 28.037,49.598 40.97,62.535 l 0.003,0.004 c 9.528,9.528 24.976,9.528 34.504,0 15.096,-15.096 2.157,-23.721 40.974,-62.538 38.817,-38.818 49.599,-28.035 62.538,-40.974 9.528,-9.528 9.528,-24.976 0,-34.504 z"
     fill="#5e22dd"
     id="path7" />
</svg>
